<?xml version="1.0" standalone="no"?>
<!DOCTYPE svg PUBLIC "-//W3C//DTD SVG 20010904//EN"
 "http://www.w3.org/TR/2001/REC-SVG-20010904/DTD/svg10.dtd">
<svg version="1.0" xmlns="http://www.w3.org/2000/svg"
 width="1024.000000pt" height="1024.000000pt" viewBox="0 0 1024.000000 1024.000000"
 preserveAspectRatio="xMidYMid meet">

<g transform="translate(0.000000,1024.000000) scale(0.100000,-0.100000)"
fill="#000000" stroke="none">
<path d="M2931 9843 c-10 -26 -10 -27 4 -9 8 11 15 23 15 28 0 15 -7 8 -19
-19z"/>
<path d="M4016 9821 c-4 -5 -2 -12 4 -16 5 -3 10 -21 10 -39 0 -33 -1 -34 -62
-45 -77 -15 -219 -82 -246 -116 -22 -28 -32 -32 -32 -12 0 17 -58 73 -67 64
-3 -4 0 -25 7 -48 15 -45 19 -36 -48 -135 -39 -59 -72 -159 -72 -223 0 -57
-11 -76 -40 -68 -17 4 -21 2 -18 -16 2 -14 11 -23 25 -25 17 -3 24 -14 33 -55
23 -105 61 -196 101 -241 39 -44 40 -46 23 -71 -9 -14 -14 -28 -11 -31 8 -8
47 6 47 17 0 5 25 -7 56 -27 69 -44 180 -84 234 -84 23 0 49 -4 58 -9 23 -12
212 32 279 64 131 64 244 236 260 393 l6 53 36 -3 c31 -3 36 0 39 20 3 19 -1
22 -31 22 -34 0 -35 1 -41 49 -12 87 -35 146 -91 230 l-55 83 30 34 c46 53 39
69 -14 34 -24 -17 -48 -30 -54 -30 -5 0 -30 16 -56 36 -56 43 -99 61 -191 84
l-70 17 -1 49 c-1 42 -4 49 -21 52 -12 2 -24 -1 -27 -7z m14 -146 c0 -20 -5
-25 -26 -25 -54 0 -224 -56 -224 -74 0 -2 32 7 71 21 38 13 92 27 118 30 44 5
49 4 54 -18 12 -43 7 -68 -13 -79 -26 -14 -25 -30 1 -37 21 -6 21 -10 17 -115
-6 -155 -15 -161 -98 -63 -36 41 -68 75 -72 75 -5 0 -5 12 -2 28 7 25 6 26
-10 13 -15 -13 -23 -8 -77 45 -32 32 -59 62 -59 66 0 24 91 97 141 113 45 15
141 40 172 44 4 1 7 -10 7 -24z m159 -15 c100 -35 185 -89 168 -106 -3 -3 -36
10 -73 29 -62 31 -136 53 -204 59 -17 2 -26 10 -28 26 -5 31 32 29 137 -8z
m-1 -59 c32 -11 85 -33 119 -49 l62 -29 -48 -47 -49 -48 -31 16 c-28 15 -46 7
-21 -9 24 -15 5 -49 -62 -115 -40 -38 -78 -70 -84 -70 -12 0 -29 224 -19 241
4 5 15 9 26 9 26 0 24 17 -4 24 -20 5 -22 10 -19 51 4 44 5 45 38 45 19 0 60
-9 92 -19z m-523 -78 c-6 -27 -6 -27 8 -8 15 19 16 19 38 -10 13 -17 40 -47
61 -69 21 -21 38 -47 38 -58 0 -17 3 -18 15 -8 15 13 35 6 35 -13 0 -7 20 -28
44 -47 51 -40 74 -76 68 -107 -3 -21 -9 -22 -119 -25 -63 -2 -117 0 -120 5 -2
4 -20 7 -39 7 -31 0 -34 -2 -34 -30 0 -28 3 -30 35 -30 20 0 38 6 40 13 4 9
35 11 123 9 64 -2 118 -5 120 -7 14 -14 -169 -184 -191 -177 -5 2 -7 -4 -4
-11 6 -17 -12 -47 -56 -94 -17 -18 -27 -36 -23 -40 5 -5 30 16 56 46 44 50 50
53 66 40 16 -13 16 -12 4 8 -13 20 -9 27 79 110 52 48 98 90 102 91 15 6 11
-255 -3 -278 -10 -16 -10 -22 -1 -28 16 -10 28 -128 14 -136 -16 -10 -147 21
-207 48 -79 36 -178 136 -220 221 -42 87 -56 158 -49 255 7 102 27 175 75 270
41 82 57 101 45 53z m762 -31 c55 -75 103 -206 103 -284 0 -32 -3 -38 -21 -38
-12 0 -23 8 -26 20 -6 24 -21 26 -29 5 -4 -8 -15 -15 -25 -15 -10 0 -19 7 -19
15 0 21 -33 19 -47 -3 -9 -16 -19 -18 -65 -11 -29 4 -81 8 -114 8 -101 1 -95
36 26 147 36 33 92 88 124 122 32 34 62 62 66 62 3 0 16 -13 27 -28z m-355
-287 c14 -30 -5 -57 -36 -53 -39 6 -29 78 10 78 8 0 19 -11 26 -25z m285 -62
c8 -20 72 -16 80 5 6 13 10 8 19 -23 12 -39 12 -39 13 -9 1 26 6 33 28 37 16
3 31 3 35 1 17 -11 -27 -156 -74 -246 -33 -62 -78 -111 -85 -91 -2 6 -17 30
-34 52 -16 23 -29 45 -29 51 0 5 -12 16 -27 24 -34 17 -173 171 -173 191 0 20
23 24 139 22 72 -1 105 -6 108 -14z m-189 -113 c45 -50 82 -87 82 -84 0 4 3 5
6 1 3 -3 -4 -20 -16 -36 -24 -35 -21 -38 17 -14 24 16 26 16 40 -3 8 -10 21
-31 28 -45 15 -28 13 -30 -105 -84 -34 -15 -34 -16 -5 -10 17 3 51 17 77 31
26 13 52 24 58 24 20 0 9 -29 -17 -48 -37 -26 -192 -80 -240 -84 l-38 -3 -3
68 c-2 53 0 67 11 67 14 0 27 20 27 41 0 5 -11 9 -24 9 -22 0 -23 3 -20 43 2
23 6 81 10 130 4 56 10 87 17 87 7 0 49 -41 95 -90z"/>
<path d="M3749 9553 c-13 -16 -12 -17 4 -4 16 13 21 21 13 21 -2 0 -10 -8 -17
-17z"/>
<path d="M3587 9183 c-10 -17 13 -53 33 -53 16 0 20 7 20 30 0 25 -4 30 -24
30 -14 0 -27 -3 -29 -7z"/>
<path d="M3740 8806 c0 -3 9 -10 20 -16 11 -6 20 -8 20 -6 0 3 -9 10 -20 16
-11 6 -20 8 -20 6z"/>
<path d="M3958 8723 c7 -3 16 -2 19 1 4 3 -2 6 -13 5 -11 0 -14 -3 -6 -6z"/>
<path d="M4406 9417 c3 -10 9 -15 12 -12 3 3 0 11 -7 18 -10 9 -11 8 -5 -6z"/>
<path d="M4130 8740 c-13 -9 -13 -10 0 -9 8 0 24 4 35 9 l20 9 -20 0 c-11 0
-27 -4 -35 -9z"/>
<path d="M4068 8723 c7 -3 16 -2 19 1 4 3 -2 6 -13 5 -11 0 -14 -3 -6 -6z"/>
<path d="M3040 9759 c0 -5 5 -7 10 -4 6 3 10 8 10 11 0 2 -4 4 -10 4 -5 0 -10
-5 -10 -11z"/>
<path d="M2975 9730 c-3 -6 1 -7 9 -4 18 7 21 14 7 14 -6 0 -13 -4 -16 -10z"/>
<path d="M6028 9716 c-40 -16 -146 -85 -165 -108 -7 -7 -26 -43 -44 -78 -36
-72 -49 -177 -31 -240 8 -28 9 -21 5 40 -4 56 -2 84 9 105 9 17 13 36 10 44
-3 10 0 12 11 8 11 -4 14 -2 11 7 -4 10 2 12 20 9 14 -3 26 -9 26 -14 0 -5 9
-9 20 -9 14 0 20 7 21 23 1 21 1 21 9 -3 5 -17 8 5 9 66 1 85 3 91 24 101 l23
11 -8 -57 c-4 -31 -5 -78 -2 -104 l6 -49 36 7 c49 9 53 12 43 38 -11 27 7 73
37 101 48 42 142 -17 142 -89 0 -28 13 -45 36 -45 7 0 4 88 -4 112 -11 30 -1
80 15 70 6 -4 13 -20 16 -37 3 -16 8 -49 12 -72 7 -41 19 -55 27 -33 5 15 88
21 88 7 0 -8 3 -8 9 1 6 11 10 11 18 0 42 -52 44 -240 4 -316 l-22 -43 -82
143 c-80 140 -83 143 -119 146 l-36 3 -7 -155 c-4 -85 -4 -159 -1 -165 5 -7
-4 -11 -23 -11 -16 0 -36 -2 -44 -5 -11 -5 -15 19 -20 134 -3 77 -11 149 -17
161 -19 35 -63 26 -92 -17 -58 -87 -99 -162 -117 -215 l-20 -57 44 -40 c57
-53 131 -75 247 -74 166 2 244 45 307 171 78 154 57 312 -56 433 -73 78 -128
102 -243 106 -64 2 -107 -2 -132 -11z m112 -15 c0 -5 3 -17 6 -25 5 -12 2 -15
-10 -10 -17 7 -22 44 -6 44 6 0 10 -4 10 -9z"/>
<path d="M2994 9678 c-5 -7 -3 -8 7 -3 8 5 7 0 -3 -12 -16 -17 -18 -41 -18
-174 0 -85 4 -161 9 -168 15 -23 20 16 24 184 2 83 7 158 11 168 9 20 -18 25
-30 5z"/>
<path d="M8331 9674 c0 -11 3 -14 6 -6 3 7 2 16 -1 19 -3 4 -6 -2 -5 -13z"/>
<path d="M9452 9667 c-13 -15 1 -90 17 -95 7 -2 11 -43 11 -104 l0 -101 -61 7
c-34 3 -214 6 -400 6 l-337 0 5 117 c5 86 3 114 -5 109 -8 -5 -12 -45 -12
-117 l0 -109 -48 0 c-27 0 -97 -3 -155 -7 l-107 -6 0 126 c0 75 4 127 10 129
6 2 2 8 -8 15 -18 11 -20 6 -26 -90 -3 -56 -6 -330 -6 -609 l-1 -508 -24 0
c-14 0 -25 -4 -25 -10 0 -6 235 -10 663 -10 475 1 657 4 644 11 -11 6 -32 9
-48 7 l-29 -5 0 124 c0 89 3 123 12 123 9 0 9 3 0 12 -18 18 -17 444 1 451 10
4 10 6 0 6 -10 1 -13 29 -13 105 0 99 1 104 23 111 22 7 22 8 1 12 -24 5 -34
50 -34 149 0 43 4 55 20 64 23 13 30 86 7 77 -7 -3 -21 1 -32 9 -23 17 -30 17
-43 1z m-44 -305 l72 -2 0 -104 0 -103 -70 5 c-48 3 -70 1 -70 -7 0 -7 24 -11
70 -11 l70 0 0 -90 0 -90 -81 0 -81 0 3 108 4 107 -75 0 c-41 0 -78 -4 -81 -9
-4 -5 -189 -9 -412 -10 l-405 -2 5 96 c3 52 7 97 9 99 2 2 101 6 221 8 120 3
219 6 220 7 2 2 518 0 601 -2z m-238 -438 l0 -224 -90 0 -90 0 0 130 c0 116 2
130 17 130 13 0 14 3 5 12 -7 7 -12 29 -12 51 0 38 0 39 -32 32 -18 -4 -37
-11 -42 -16 -6 -5 -16 -9 -23 -9 -7 0 -61 -28 -121 -61 -59 -34 -136 -79 -172
-99 -36 -20 -109 -60 -162 -88 l-98 -51 0 105 0 106 65 -4 c36 -2 65 0 65 4 0
4 -29 8 -65 8 l-65 0 0 90 c0 86 1 90 23 91 12 1 186 5 387 8 201 3 375 7 387
7 l22 2 1 -224z m-330 -84 l0 -140 -85 0 c-48 0 -85 -4 -85 -10 0 -5 34 -9 83
-7 l82 2 3 -127 3 -127 -246 1 -245 1 0 141 0 141 178 87 c97 48 206 107 242
132 36 25 66 45 68 45 1 1 2 -62 2 -139z m640 -25 l0 -135 -80 0 -80 0 0 135
0 135 80 0 80 0 0 -135z m-310 -260 l0 -125 -92 0 -93 0 3 125 3 125 90 0 89
0 0 -125z m310 -4 l0 -119 -81 -4 c-44 -2 -83 -1 -85 1 -6 7 -5 208 2 225 5
13 22 16 85 16 l79 0 0 -119z"/>
<path d="M9048 8953 c12 -2 30 -2 40 0 9 3 -1 5 -23 4 -22 0 -30 -2 -17 -4z"/>
<path d="M8508 8933 c7 -3 16 -2 19 1 4 3 -2 6 -13 5 -11 0 -14 -3 -6 -6z"/>
<path d="M8408 8683 c7 -3 16 -2 19 1 4 3 -2 6 -13 5 -11 0 -14 -3 -6 -6z"/>
<path d="M9008 9593 c6 -2 18 -2 25 0 6 3 1 5 -13 5 -14 0 -19 -2 -12 -5z"/>
<path d="M5400 9584 c0 -11 61 -74 73 -74 16 0 6 19 -13 25 -11 3 -20 13 -20
21 0 8 -4 13 -9 9 -6 -3 -14 3 -20 12 -6 10 -11 13 -11 7z"/>
<path d="M26 9421 c46 -11 53 -18 52 -51 -1 -17 2 -33 5 -37 4 -3 7 2 7 12 0
12 8 6 25 -19 14 -20 25 -41 25 -45 0 -5 7 -14 15 -21 14 -12 14 -15 0 -30 -8
-9 -15 -28 -15 -42 0 -30 -28 -100 -44 -110 -8 -5 -8 -10 0 -18 7 -7 20 9 43
54 18 36 41 68 52 71 22 7 25 40 4 52 -15 9 -75 120 -75 141 0 28 -39 52 -82
51 -41 -1 -41 -1 -12 -8z"/>
<path d="M5131 9374 c0 -11 3 -14 6 -6 3 7 2 16 -1 19 -3 4 -6 -2 -5 -13z"/>
<path d="M5931 9364 c0 -11 3 -14 6 -6 3 7 2 16 -1 19 -3 4 -6 -2 -5 -13z"/>
<path d="M2 9330 c0 -14 2 -19 5 -12 2 6 2 18 0 25 -3 6 -5 1 -5 -13z"/>
<path d="M10154 9311 c-128 -43 -161 -64 -199 -121 -57 -87 -96 -176 -113
-261 -8 -44 -18 -75 -22 -69 -5 8 -9 6 -14 -5 -11 -29 -7 -53 12 -67 10 -7 32
-33 49 -58 18 -25 50 -65 72 -90 40 -44 51 -70 31 -70 -15 0 -12 -26 4 -39 11
-10 16 -9 23 4 9 15 14 14 59 -3 68 -27 124 -42 124 -33 0 4 -26 15 -57 24
-32 9 -67 22 -78 30 -19 14 -19 15 7 48 14 19 51 61 81 94 55 60 55 60 66 35
8 -21 10 -22 10 -5 0 11 -4 28 -8 39 -7 19 -19 6 -175 -175 l-29 -34 -8 27
c-4 15 -25 49 -47 75 -60 72 -92 123 -92 148 0 21 5 22 108 29 59 3 135 9 170
13 54 5 62 4 62 -11 0 -16 2 -15 25 1 17 12 24 28 25 49 0 38 -73 185 -129
259 -23 30 -41 59 -41 65 0 5 -4 10 -10 10 -5 0 -10 7 -10 16 0 9 25 27 65 45
74 33 85 35 85 14 0 -8 5 -15 10 -15 6 0 10 11 10 25 0 29 1 29 -66 6z m-128
-87 c-3 -9 1 -25 9 -37 8 -12 15 -16 15 -9 0 7 5 10 10 7 6 -4 8 -16 5 -28 -5
-16 -4 -18 3 -8 7 10 17 3 41 -32 17 -25 31 -53 31 -61 0 -9 4 -16 9 -16 5 0
26 -34 47 -75 31 -59 36 -77 27 -86 -23 -23 -383 -39 -383 -18 0 62 103 306
150 357 24 26 45 29 36 6z m-186 -403 c0 -6 -4 -13 -10 -16 -5 -3 -10 1 -10 9
0 9 5 16 10 16 6 0 10 -4 10 -9z"/>
<path d="M2937 9313 c-3 -5 -10 -27 -16 -50 -13 -47 -44 -60 -54 -23 -10 38
-30 23 -23 -17 4 -21 3 -33 -1 -28 -4 6 -21 16 -38 24 -27 11 -31 11 -47 -9
-24 -29 -23 -35 8 -63 22 -20 24 -28 15 -45 -9 -17 -18 -19 -50 -15 -34 5 -40
2 -46 -17 -9 -28 5 -42 52 -49 32 -5 38 -10 41 -34 2 -19 -4 -33 -20 -47 -22
-18 -22 -20 -8 -47 14 -26 60 -46 60 -26 1 29 17 32 59 12 39 -19 42 -22 36
-50 -7 -32 7 -59 33 -59 18 0 41 29 42 52 0 28 22 32 40 8 26 -35 60 -20 60
28 0 20 7 45 14 55 12 15 15 15 26 2 17 -20 56 -19 64 1 4 9 0 27 -9 40 -19
29 -19 54 0 54 32 0 65 23 65 47 0 21 -5 23 -45 23 -35 0 -47 4 -56 22 -10 19
-8 25 21 49 22 19 31 33 26 44 -9 24 -58 15 -72 -13 -10 -21 -11 -21 -27 -4
-10 10 -17 34 -17 53 0 34 -14 59 -33 59 -5 0 -7 -13 -5 -30 3 -20 0 -30 -9
-30 -7 0 -13 11 -13 25 0 37 -58 83 -73 58z m83 -138 c36 -18 80 -91 80 -131
0 -38 -42 -99 -81 -120 -33 -17 -101 -14 -138 6 -50 26 -67 138 -31 198 34 56
112 77 170 47z m-60 -338 c0 -5 -4 -5 -10 -2 -5 3 -10 14 -10 23 0 15 2 15 10
2 5 -8 10 -19 10 -23z"/>
<path d="M0 9280 c0 -5 5 -10 10 -10 6 0 10 5 10 10 0 6 -4 10 -10 10 -5 0
-10 -4 -10 -10z"/>
<path d="M5 9230 c-3 -5 1 -10 9 -10 9 0 16 5 16 10 0 6 -4 10 -9 10 -6 0 -13
-4 -16 -10z"/>
<path d="M103 9185 c-7 -8 -12 -24 -12 -37 1 -17 2 -19 6 -5 2 9 8 15 13 12 4
-3 10 6 12 20 6 28 -1 31 -19 10z"/>
<path d="M8 9153 c7 -3 16 -2 19 1 4 3 -2 6 -13 5 -11 0 -14 -3 -6 -6z"/>
<path d="M10197 9101 c-23 -40 -21 -49 4 -17 11 14 19 31 17 36 -2 6 -11 -2
-21 -19z"/>
<path d="M23 9065 c0 -27 2 -38 4 -22 2 15 2 37 0 50 -2 12 -4 0 -4 -28z"/>
<path d="M5225 9050 c-3 -5 -1 -10 4 -10 6 0 11 5 11 10 0 6 -2 10 -4 10 -3 0
-8 -4 -11 -10z"/>
<path d="M85 9029 c-4 -6 -5 -12 -2 -15 2 -3 7 2 10 11 7 17 1 20 -8 4z"/>
<path d="M3 8980 c0 -30 2 -43 4 -27 2 15 2 39 0 55 -2 15 -4 2 -4 -28z"/>
<path d="M5250 9020 c-13 -8 -13 -10 2 -10 9 0 20 5 23 10 8 13 -5 13 -25 0z"/>
<path d="M5065 8960 c-3 -5 -1 -10 4 -10 6 0 11 5 11 10 0 6 -2 10 -4 10 -3 0
-8 -4 -11 -10z"/>
<path d="M1840 8806 c-28 -14 -53 -37 -68 -62 -20 -34 -22 -48 -18 -109 9
-122 19 -143 83 -172 45 -21 65 -24 105 -20 63 8 129 44 148 82 22 46 20 170
-5 220 -40 79 -154 108 -245 61z m120 -20 c0 -3 -4 -8 -10 -11 -5 -3 -10 -1
-10 4 0 6 5 11 10 11 6 0 10 -2 10 -4z m-77 -16 c16 0 -14 -20 -30 -20 -7 0
-13 7 -13 16 0 11 5 14 16 10 9 -3 21 -6 27 -6z m77 -18 c0 -18 -26 -32 -59
-30 l-36 1 33 4 c18 3 36 11 39 19 5 15 23 20 23 6z m60 -46 c0 -19 9 -63 20
-98 11 -34 20 -65 20 -67 0 -3 -13 8 -30 24 -16 15 -29 31 -28 34 4 40 -17 40
-31 1 -5 -16 -15 -30 -20 -30 -7 0 -7 8 -1 26 6 14 10 39 10 55 0 28 -1 29
-54 29 -37 0 -56 4 -59 14 -4 11 8 14 56 15 44 0 65 5 72 16 5 8 18 15 27 15
14 0 18 -8 18 -34z m-243 -83 c-3 -10 -5 -4 -5 12 0 17 2 24 5 18 2 -7 2 -21
0 -30z m23 -61 c0 -7 -4 -10 -10 -7 -5 3 -10 16 -10 28 0 18 2 19 10 7 5 -8
10 -21 10 -28z m76 -24 c1 -31 -2 -38 -18 -38 -17 0 -19 5 -13 30 4 19 3 30
-4 30 -6 0 -11 5 -11 11 0 6 10 9 23 7 18 -2 22 -10 23 -40z"/>
<path d="M5117 8809 c7 -7 15 -10 18 -7 3 3 -2 9 -12 12 -14 6 -15 5 -6 -5z"/>
<path d="M10232 8765 c0 -16 2 -22 5 -12 2 9 2 23 0 30 -3 6 -5 -1 -5 -18z"/>
<path d="M1183 8770 c-50 -11 -100 -56 -129 -112 -21 -42 -25 -62 -22 -107 8
-106 48 -155 149 -182 39 -11 52 -10 94 7 101 38 156 133 140 240 -14 97 -134
176 -232 154z m144 -58 c24 -19 53 -84 52 -116 -1 -16 -3 -14 -10 9 -5 17 -15
37 -22 46 -24 32 -81 59 -122 58 l-40 -1 40 -13 c29 -9 34 -13 17 -14 -22 -1
-23 -4 -21 -78 2 -76 1 -80 -30 -74 -5 0 -12 39 -16 86 l-7 85 -28 -15 c-42
-22 -68 -133 -38 -163 15 -15 202 -17 193 -2 -3 6 -15 10 -26 10 -11 0 -18 4
-14 9 3 6 18 6 38 0 49 -14 67 -11 77 14 8 21 9 21 9 -6 1 -35 -19 -74 -53
-106 -37 -35 -117 -40 -180 -13 -59 27 -81 71 -73 150 11 104 65 152 172 152
42 0 67 -6 82 -18z m-170 -104 c-3 -8 -6 -5 -6 6 -1 11 2 17 5 13 3 -3 4 -12
1 -19z"/>
<path d="M1329 8490 c-9 -5 -64 -8 -122 -7 l-107 2 25 -25 c21 -20 37 -25 95
-28 74 -4 97 5 121 50 11 20 10 21 -12 8z"/>
<path d="M4410 8766 c0 -34 14 -76 25 -76 7 0 23 8 36 19 l23 18 -27 27 c-28
28 -57 34 -57 12z"/>
<path d="M10233 8695 c0 -22 2 -30 4 -17 2 12 2 30 0 40 -3 9 -5 -1 -4 -23z"/>
<path d="M1 8704 c0 -11 3 -14 6 -6 3 7 2 16 -1 19 -3 4 -6 -2 -5 -13z"/>
<path d="M62 8688 c-24 -30 -42 -95 -42 -149 0 -33 -4 -59 -10 -59 -6 0 -10
-33 -10 -77 l0 -78 162 4 c90 1 165 4 166 6 2 2 6 22 9 46 l6 42 120 -7 c66
-3 160 -6 209 -6 l88 0 0 -905 0 -906 -380 3 -380 3 0 -42 c0 -41 1 -43 29
-43 28 0 30 -3 34 -42 l4 -43 1 43 2 42 238 1 c130 0 298 0 373 -1 l136 -1 6
53 c11 90 8 1864 -3 1893 l-10 26 -251 -1 c-138 -1 -254 1 -257 4 -3 3 -20 6
-39 6 -38 0 -41 8 -13 33 26 22 34 22 54 -5 l17 -23 -7 25 c-9 32 -19 38 -74
45 -61 8 -71 15 -87 60 -7 21 -18 44 -24 51 -14 17 -53 18 -67 2z m57 -42 c7
-8 11 -30 9 -48 -3 -29 -6 -33 -33 -33 -34 0 -43 23 -26 68 12 30 32 35 50 13z
m61 -92 c0 -9 -7 -22 -15 -30 -13 -14 -15 -13 -15 4 0 29 11 53 21 46 5 -3 9
-12 9 -20z"/>
<path d="M5120 8686 c0 -17 14 -29 23 -20 8 8 -3 34 -14 34 -5 0 -9 -6 -9 -14z"/>
<path d="M4033 8593 c-7 -2 -13 -20 -13 -39 0 -27 4 -34 20 -34 14 0 20 7 22
25 0 14 1 30 2 37 1 13 -13 19 -31 11z"/>
<path d="M5529 8585 c-65 -21 -170 -132 -194 -205 -22 -65 -17 -178 10 -230
33 -66 83 -117 142 -146 51 -25 69 -28 148 -29 107 0 158 21 236 97 85 84 104
214 49 325 -75 149 -250 233 -391 188z m216 -35 c64 -31 131 -93 157 -145 26
-49 35 -162 18 -223 -13 -52 -75 -122 -138 -159 -35 -21 -62 -27 -122 -31 -98
-6 -155 12 -232 73 -48 39 -59 54 -74 103 -54 172 33 350 196 403 46 15 142 5
195 -21z"/>
<path d="M5550 8486 c-107 -35 -134 -79 -129 -203 4 -69 8 -83 32 -114 16 -19
50 -46 75 -61 81 -48 210 -32 267 32 16 18 11 17 -30 -9 -60 -37 -134 -49
-191 -31 -45 14 -124 86 -124 112 0 10 -5 18 -11 18 -18 0 -5 128 16 174 24
50 78 75 161 76 74 0 117 -13 169 -53 l40 -30 -34 36 c-19 20 -49 43 -67 52
-37 17 -123 18 -174 1z"/>
<path d="M5563 8410 c-56 -34 -77 -102 -52 -167 6 -15 10 -30 10 -33 0 -14 35
-40 63 -46 30 -8 37 -8 72 -5 8 0 29 14 45 30 21 22 29 38 28 63 l-1 33 -8
-35 c-5 -19 -20 -45 -35 -57 -38 -33 -78 -30 -122 10 -31 29 -37 41 -41 90 -4
53 -2 58 27 88 31 30 35 31 93 26 33 -3 65 -10 71 -16 13 -13 27 -14 27 -2 0
15 -67 41 -107 41 -21 0 -52 -9 -70 -20z"/>
<path d="M5582 8328 c-20 -20 -14 -65 10 -82 20 -14 23 -14 31 0 5 9 7 24 4
35 -4 14 0 19 15 19 17 0 19 -4 13 -32 -7 -30 -7 -31 10 -15 11 11 15 27 12
42 -5 27 7 34 17 10 3 -8 11 -15 18 -15 7 0 0 12 -15 25 -31 27 -94 34 -115
13z"/>
<path d="M5781 8204 c0 -11 3 -14 6 -6 3 7 2 16 -1 19 -3 4 -6 -2 -5 -13z"/>
<path d="M10205 8490 c3 -5 13 -10 21 -10 8 0 12 5 9 10 -3 6 -13 10 -21 10
-8 0 -12 -4 -9 -10z"/>
<path d="M270 8155 c0 -81 3 -106 13 -103 6 3 15 24 18 49 3 24 7 38 7 31 3
-24 43 -73 54 -66 5 4 21 29 33 57 l24 50 3 -53 c2 -32 8 -55 16 -58 10 -3 12
17 10 89 -2 61 -7 94 -15 96 -15 5 -45 -29 -58 -67 -14 -43 -25 -41 -44 9 -9
24 -26 50 -38 59 l-23 14 0 -107z"/>
<path d="M13 8243 c-22 -8 -14 -23 13 -23 15 0 24 5 22 12 -5 14 -18 18 -35
11z"/>
<path d="M80 8177 c0 -60 4 -79 21 -101 27 -34 71 -35 104 -1 22 21 25 33 25
100 0 60 -3 75 -15 75 -12 0 -15 -13 -15 -57 0 -86 -7 -103 -41 -103 -37 0
-44 13 -44 90 0 53 -3 65 -17 68 -16 3 -18 -5 -18 -71z"/>
<path d="M494 8241 c-2 -2 -4 -44 -4 -93 l0 -88 60 0 c68 0 80 14 20 24 -34 5
-40 10 -40 30 0 20 6 25 32 28 49 5 48 28 -1 28 -23 0 -41 3 -41 8 1 18 17 30
44 34 51 6 41 26 -14 30 -29 1 -54 1 -56 -1z"/>
<path d="M8483 8143 c2 -38 7 -78 12 -90 l7 -23 -1093 -1 c-702 0 -1083 -4
-1064 -10 17 -5 50 -7 74 -4 25 4 55 2 72 -5 25 -11 29 -18 29 -51 l0 -39 -60
0 c-53 0 -60 -2 -60 -20 0 -13 -7 -20 -20 -20 -15 0 -20 -7 -20 -25 0 -18 -5
-25 -20 -25 -16 0 -20 -7 -20 -35 0 -24 -5 -35 -14 -35 -8 0 -18 -9 -21 -20
-3 -11 -15 -20 -26 -20 -12 0 -19 -7 -19 -20 0 -11 -4 -20 -10 -20 -5 0 -10
-9 -10 -20 0 -11 -4 -20 -10 -20 -6 0 -10 -27 -10 -60 0 -53 -2 -60 -19 -60
-12 0 -21 8 -24 23 -2 12 -4 -7 -4 -43 0 -36 2 -55 4 -42 12 63 36 -15 26 -87
-4 -31 -9 -41 -20 -36 -12 4 -14 -5 -11 -47 1 -29 8 -56 13 -60 6 -4 529 -8
1163 -8 l1152 0 -1 -22 c0 -13 -6 -61 -13 -108 -7 -47 -12 -87 -10 -89 2 -2
38 30 81 71 73 70 167 148 352 292 42 32 106 84 142 115 36 31 84 71 107 90
l43 34 -23 25 c-13 14 -70 60 -128 103 -134 101 -352 289 -457 396 -45 46 -85
83 -88 83 -4 0 -5 -30 -2 -67z m-1848 -333 c3 -5 2 -10 -4 -10 -5 0 -13 5 -16
10 -3 6 -2 10 4 10 5 0 13 -4 16 -10z m150 -10 c19 -8 19 -9 -2 -9 -12 -1 -25
4 -28 9 -7 12 2 12 30 0z m-205 -11 c0 -5 5 -7 10 -4 16 10 12 -1 -8 -18 -17
-15 -18 -15 -18 8 0 14 4 25 8 25 4 0 8 -5 8 -11z m178 -5 c28 -19 30 -64 3
-64 -10 0 -32 5 -49 11 -30 10 -72 -1 -72 -19 0 -4 31 -22 70 -40 77 -36 95
-58 86 -107 -15 -78 -114 -110 -197 -63 -43 24 -46 30 -23 52 19 19 13 19 64
1 31 -11 47 -12 62 -4 29 15 18 31 -45 65 -65 34 -86 58 -86 94 0 71 123 119
187 74z m150 -146 l3 -158 -35 0 -34 0 -7 94 c-4 52 -4 124 0 161 l7 66 32 -3
31 -3 3 -157z m242 140 c60 -31 93 -92 87 -161 -3 -40 -11 -56 -41 -85 -35
-36 -39 -37 -129 -43 -50 -3 -95 -3 -99 -1 -5 2 -8 73 -8 158 l0 154 73 0 c56
0 83 -5 117 -22z m348 -10 l-3 -33 -72 -3 c-70 -3 -73 -4 -73 -27 0 -23 3 -25
53 -25 58 0 77 -12 77 -47 0 -21 -4 -23 -60 -23 l-60 0 0 -30 0 -30 65 0 65 0
0 -35 0 -35 -105 0 -105 0 0 144 c0 79 -3 151 -6 160 -5 14 8 16 111 16 l116
0 -3 -32z m320 -79 c3 -83 1 -113 -12 -137 -21 -40 -67 -72 -104 -72 -40 0
-82 40 -82 78 0 40 22 46 55 16 52 -48 65 -26 65 106 0 59 3 110 7 114 4 4 21
6 37 4 l30 -3 4 -106z m310 73 c49 -49 69 -116 49 -164 -17 -40 -87 -105 -122
-114 -58 -15 -141 22 -175 78 -28 46 -26 115 3 159 37 56 81 79 148 79 55 0
62 -3 97 -38z m255 27 c63 -33 84 -83 51 -120 -14 -16 -14 -19 5 -38 32 -32
28 -85 -9 -122 -28 -29 -31 -30 -116 -27 l-87 3 0 95 c0 52 1 123 1 158 l2 62
66 0 c36 0 75 -5 87 -11z m-1556 -21 c-3 -8 -6 -5 -6 6 -1 11 2 17 5 13 3 -3
4 -12 1 -19z"/>
<path d="M7038 7643 l3 -90 47 7 c80 13 106 74 55 130 -19 20 -41 32 -68 36
l-40 6 3 -89z"/>
<path d="M7972 7723 c-18 -7 -42 -57 -42 -88 0 -34 50 -85 84 -85 40 0 96 55
96 95 0 48 -39 85 -87 84 -21 0 -44 -3 -51 -6z"/>
<path d="M8303 7733 c-18 -7 -16 -42 2 -49 23 -9 65 5 65 21 0 24 -39 40 -67
28z"/>
<path d="M8313 7613 c-7 -2 -13 -18 -13 -34 0 -28 2 -29 45 -29 43 0 45 1 45
29 0 36 -35 52 -77 34z"/>
<path d="M2 8118 c-1 -43 3 -78 8 -78 11 0 50 49 50 64 0 6 -11 23 -23 37 -13
13 -26 31 -29 39 -3 8 -6 -20 -6 -62z"/>
<path d="M1700 8133 c-14 -14 -44 -37 -67 -52 -23 -14 -70 -53 -105 -86 -35
-33 -86 -77 -113 -97 -46 -33 -106 -91 -79 -75 7 4 14 -3 17 -18 3 -18 -1 -29
-14 -36 -12 -6 -19 -6 -19 0 0 5 7 11 15 13 12 2 11 6 -6 16 -11 8 -18 9 -14
3 3 -6 0 -11 -8 -11 -8 0 -20 -6 -27 -14 -6 -8 -17 -13 -24 -10 -17 7 -40 -22
-30 -38 6 -10 5 -10 -7 -2 -11 9 -24 3 -61 -26 -26 -21 -44 -41 -40 -45 4 -4
0 -5 -8 -4 -19 5 -94 -41 -83 -51 57 -51 127 -99 135 -94 6 4 9 3 5 -2 -3 -5
24 -32 60 -59 77 -59 312 -260 432 -368 47 -43 89 -77 95 -77 6 0 5 4 -3 9
-18 12 -27 196 -11 206 6 4 523 7 1148 7 625 0 1149 2 1165 5 42 8 32 20 -23
27 -51 7 -61 26 -14 26 17 0 24 5 24 20 0 11 5 20 10 20 13 0 13 37 1 42 -8 3
-15 55 -12 100 1 9 8 24 16 32 14 14 14 19 1 43 -7 15 -19 70 -25 122 -10 76
-9 96 1 103 9 5 9 8 1 8 -6 0 -15 9 -18 20 -6 18 -14 20 -73 18 l-67 -2 63 -3
63 -4 -3 -37 -3 -37 -67 -3 c-56 -2 -68 -6 -68 -20 0 -14 10 -17 63 -17 l62 0
0 -40 0 -40 -57 -9 c-47 -8 -58 -13 -58 -29 0 -17 6 -18 63 -15 l62 3 1 -49
c1 -27 7 -52 13 -56 7 -4 -4 -7 -24 -8 -24 -1 -34 2 -29 10 4 7 3 8 -5 4 -14
-9 -51 2 -51 15 0 5 12 10 28 10 15 1 -4 5 -41 10 -38 4 -71 10 -74 13 -3 3
-8 47 -10 98 -2 51 -7 100 -10 108 -3 8 -4 42 -3 74 1 57 1 58 -16 41 -17 -16
-31 -17 -149 -11 -71 3 -142 8 -157 10 -15 2 -25 -1 -22 -5 3 -5 12 -9 19 -9
19 0 31 -25 40 -80 4 -25 20 -70 35 -101 37 -72 46 -121 27 -137 -21 -18 -45
-5 -56 31 -11 31 -12 32 -61 29 -47 -4 -50 -5 -50 -32 0 -23 -5 -30 -29 -35
-18 -4 -31 -14 -35 -28 -12 -47 -16 -5 -5 54 12 64 15 75 63 179 57 125 46
142 -91 146 -54 2 -92 1 -85 -2 10 -5 9 -9 -5 -20 -17 -13 -17 -13 5 -14 86
-1 135 -100 78 -159 l-26 -27 25 -50 c31 -60 31 -70 3 -77 -25 -7 -53 15 -90
69 -21 31 -40 44 -37 27 1 -5 1 -27 0 -50 -1 -42 -2 -43 -37 -43 l-36 0 4 164
3 164 -55 6 c-30 3 -73 7 -95 10 -22 2 -42 1 -45 -3 -3 -4 -27 -18 -53 -30
-26 -13 -46 -25 -44 -27 2 -2 21 5 43 17 70 36 150 7 189 -71 31 -61 32 -107
2 -151 -69 -103 -206 -106 -267 -7 -27 44 -27 122 0 166 l20 32 -23 -15 c-23
-15 -25 -14 -42 19 -31 58 -81 68 -202 43 -34 -8 -60 -10 -57 -5 3 4 -8 11
-25 14 -17 4 -31 11 -31 16 0 5 -21 6 -47 4 -27 -3 -48 -5 -48 -6 0 -1 -21 -2
-47 -3 -26 -2 -53 -8 -60 -15 -9 -9 7 -12 75 -12 107 0 148 -15 170 -63 20
-41 14 -62 -25 -95 l-28 -24 24 -31 c14 -18 27 -44 31 -59 6 -21 3 -27 -16
-33 -19 -6 -30 0 -61 36 -21 24 -38 48 -38 52 0 5 -12 7 -27 5 -26 -3 -28 -7
-31 -50 -3 -43 -6 -48 -27 -48 -26 0 -30 11 -40 115 -3 28 -11 72 -18 99 -8
27 -13 62 -12 77 1 16 -2 29 -7 29 -4 0 -8 8 -8 18 0 14 -2 15 -10 2 -6 -10
-10 -11 -10 -2 0 6 -9 12 -20 12 -13 0 -20 7 -20 20 0 13 -7 20 -20 20 -17 0
-20 7 -20 40 0 33 3 40 20 40 13 0 20 7 20 20 0 10 8 24 18 30 12 7 -50 9
-216 6 l-233 -3 6 28 c4 15 15 46 26 68 29 60 22 67 -21 24z m-57 -84 c4 -16
3 -18 -9 -8 -7 6 -11 15 -8 20 8 13 11 11 17 -12z m-53 -33 c0 -3 -4 -8 -10
-11 -5 -3 -10 -1 -10 4 0 6 5 11 10 11 6 0 10 -2 10 -4z m247 -226 c47 -28 58
-55 42 -102 -15 -45 -28 -59 -21 -22 6 34 -32 74 -71 74 -43 0 -87 -51 -87
-100 0 -31 6 -44 32 -65 26 -22 39 -26 67 -21 20 3 43 15 53 28 l16 23 7 -28
c17 -68 -20 -101 -98 -86 -60 11 -77 20 -116 64 -65 75 -15 201 95 240 49 18
44 18 81 -5z m303 -20 c39 -28 60 -74 60 -132 0 -51 -17 -78 -73 -119 -30 -22
-51 -29 -86 -29 -41 0 -53 6 -99 46 -44 39 -52 51 -52 80 0 55 38 132 79 160
46 32 121 30 171 -6z m575 -4 c21 -27 26 -44 23 -77 -3 -39 -7 -46 -43 -66
-22 -13 -57 -23 -77 -23 l-37 0 -6 -55 c-8 -60 -15 -70 -45 -60 -18 6 -20 15
-20 108 0 56 3 126 6 155 l7 52 83 0 c83 0 83 0 109 -34z m1050 3 c8 -35 0
-49 -26 -49 -10 0 -19 -5 -19 -11 0 -6 9 -8 20 -4 11 3 20 2 20 -3 0 -5 -13
-12 -29 -15 -21 -4 -31 -14 -36 -34 -3 -15 -3 -29 2 -30 4 -2 7 -31 5 -66 -3
-59 -2 -64 27 -90 25 -22 31 -35 31 -67 0 -33 -3 -40 -20 -40 -13 0 -20 7 -20
20 0 13 -7 20 -20 20 -13 0 -20 7 -20 19 0 11 -9 23 -20 26 -12 4 -20 14 -18
23 1 9 -2 24 -7 32 -12 20 -24 110 -13 104 10 -6 11 41 2 85 -4 21 -12 31 -24
31 -37 0 -50 12 -50 46 l0 34 105 -2 104 -1 6 -28z m-1841 2 c3 -5 -1 -14 -9
-21 -8 -7 -15 -10 -15 -7 0 3 -3 12 -6 21 -7 17 20 23 30 7z m-664 -26 c0 -8
-4 -15 -10 -15 -5 0 -10 7 -10 15 0 8 5 15 10 15 6 0 10 -7 10 -15z m-62 -45
c-7 -10 -14 -17 -17 -15 -4 4 18 35 25 35 2 0 -1 -9 -8 -20z"/>
<path d="M1997 7712 c-22 -24 -22 -100 -1 -130 18 -27 70 -30 114 -7 26 13 30
21 30 55 0 22 -4 40 -8 40 -4 0 -6 -15 -4 -34 3 -26 -1 -37 -19 -50 -37 -26
-55 -20 -67 23 -7 21 -12 49 -11 62 1 14 5 5 11 -21 5 -25 15 -49 20 -55 8 -7
9 -6 4 2 -3 6 -2 15 4 18 6 4 8 16 4 27 -4 14 -2 18 5 14 12 -8 15 31 5 58 -9
22 -67 21 -87 -2z"/>
<path d="M2580 7721 c0 -6 5 -13 12 -17 7 -4 8 -3 4 4 -5 8 1 12 17 12 18 0
23 -5 23 -22 -1 -13 -10 -28 -21 -35 -24 -15 -15 -16 19 -3 28 10 34 38 14 58
-14 14 -68 16 -68 3z"/>
<path d="M3691 7714 c0 -11 3 -14 6 -6 3 7 2 16 -1 19 -3 4 -6 -2 -5 -13z"/>
<path d="M4590 8029 c0 -5 5 -7 10 -4 6 3 10 8 10 11 0 2 -4 4 -10 4 -5 0 -10
-5 -10 -11z"/>
<path d="M0 7910 c0 -6 42 -10 102 -10 56 0 99 2 97 4 -10 9 -199 15 -199 6z"/>
<path d="M343 7914 c9 -9 307 -11 307 -1 0 4 -70 7 -157 7 -86 0 -153 -3 -150
-6z"/>
<path d="M9850 6939 c0 -856 1 -900 18 -929 l19 -30 6 106 c4 59 7 477 7 929
l0 823 -25 0 -25 0 0 -899z"/>
<path d="M9940 6900 c0 -636 4 -930 10 -920 8 11 10 -3 7 -47 -3 -75 12 -68
19 8 3 30 8 469 10 975 l5 922 -26 -2 -25 -1 0 -935z"/>
<path d="M10023 6876 c3 -529 9 -976 14 -995 4 -19 13 -36 19 -38 15 -5 24
463 24 1298 l0 698 -30 -1 -31 -1 4 -961z"/>
<path d="M10114 7831 c-7 -7 -5 -1655 3 -1819 5 -133 8 -152 23 -152 15 0 17
24 23 242 4 133 7 578 7 989 l0 747 -26 -2 c-14 0 -28 -3 -30 -5z"/>
<path d="M10201 6835 c1 -923 3 -1006 18 -1003 15 3 16 89 19 1006 l3 1002
-21 0 -21 0 2 -1005z"/>
<path d="M3145 7820 l-30 -8 37 -1 c20 0 40 4 43 9 7 11 -6 11 -50 0z"/>
<path d="M9513 6863 c2 -597 8 -979 14 -998 l9 -30 6 30 c4 17 7 465 8 998 l1
967 -21 0 -22 0 5 -967z"/>
<path d="M9592 6933 c0 -494 4 -878 8 -853 6 42 7 43 14 18 5 -16 6 -38 3 -50
-2 -13 -1 -34 2 -48 14 -50 21 299 21 1057 l0 773 -25 0 -25 0 2 -897z"/>
<path d="M9670 6964 c0 -574 3 -863 10 -859 6 3 10 -2 11 -12 0 -10 3 -43 5
-73 3 -30 5 -63 5 -72 0 -10 4 -20 10 -23 5 -4 9 96 9 257 1 145 3 575 6 956
l6 692 -31 0 -31 0 0 -866z"/>
<path d="M9760 6956 c0 -834 4 -1034 21 -976 6 23 7 23 8 3 1 -12 5 -25 11
-28 6 -4 10 252 10 722 0 400 3 824 7 941 l6 212 -31 0 -32 0 0 -874z"/>
<path d="M3833 7793 c9 -2 23 -2 30 0 6 3 -1 5 -18 5 -16 0 -22 -2 -12 -5z"/>
<path d="M28 7753 c7 -3 16 -2 19 1 4 3 -2 6 -13 5 -11 0 -14 -3 -6 -6z"/>
<path d="M6152 7730 c0 -19 2 -27 5 -17 2 9 2 25 0 35 -3 9 -5 1 -5 -18z"/>
<path d="M2865 7717 c-17 -14 -28 -36 -32 -62 -4 -33 -1 -45 21 -67 33 -37 87
-38 121 -3 25 24 33 69 15 80 -5 3 -10 -3 -10 -14 0 -12 -4 -21 -10 -21 -6 0
-6 9 0 26 14 35 13 41 -12 64 -28 26 -61 25 -93 -3z m91 -34 c-10 -10 -19 5
-10 18 6 11 8 11 12 0 2 -7 1 -15 -2 -18z"/>
<path d="M2300 7701 c0 -24 5 -31 29 -36 33 -7 71 8 71 28 0 23 -23 37 -62 37
-35 0 -38 -2 -38 -29z"/>
<path d="M3170 7696 c0 -34 2 -36 35 -36 63 0 59 62 -4 68 -30 3 -31 2 -31
-32z"/>
<path d="M152 7663 c87 -2 229 -2 315 0 87 1 16 3 -157 3 -173 0 -244 -2 -158
-3z"/>
<path d="M3448 7641 c-3 -21 0 -31 9 -31 15 0 17 28 4 49 -6 9 -10 4 -13 -18z"/>
<path d="M640 7539 c0 -5 5 -7 10 -4 6 3 10 8 10 11 0 2 -4 4 -10 4 -5 0 -10
-5 -10 -11z"/>
<path d="M6053 7543 c-20 -8 -15 -33 6 -33 19 0 35 23 24 34 -7 7 -13 7 -30
-1z"/>
<path d="M6037 7433 c13 -36 46 -45 41 -10 -2 14 -11 23 -25 25 -18 3 -22 0
-16 -15z"/>
<path d="M6030 7336 c0 -16 26 -46 41 -46 5 0 9 14 9 30 0 25 -4 30 -25 30
-15 0 -25 -6 -25 -14z"/>
<path d="M6040 7230 c0 -13 7 -20 20 -20 13 0 20 7 20 20 0 13 -7 20 -20 20
-13 0 -20 -7 -20 -20z"/>
<path d="M8 7203 c7 -3 16 -2 19 1 4 3 -2 6 -13 5 -11 0 -14 -3 -6 -6z"/>
<path d="M608 7203 c6 -2 18 -2 25 0 6 3 1 5 -13 5 -14 0 -19 -2 -12 -5z"/>
<path d="M6047 7137 c-36 -14 -31 -41 8 -45 27 -2 28 -1 13 11 -22 17 -23 31
-3 23 9 -3 15 0 15 9 0 8 -1 15 -2 14 -2 -1 -16 -6 -31 -12z"/>
<path d="M4230 7130 c0 -5 7 -10 15 -10 8 0 15 5 15 10 0 6 -7 10 -15 10 -8 0
-15 -4 -15 -10z"/>
<path d="M277 7051 c-46 -51 -67 -92 -67 -130 0 -43 30 -113 45 -107 7 2 25
-9 40 -24 28 -29 28 -29 46 -9 15 18 18 18 33 4 15 -15 16 -15 16 5 0 11 11
37 25 58 l24 37 98 3 c54 2 103 8 108 14 7 7 -21 9 -92 5 -91 -5 -103 -3 -103
11 0 13 2 14 9 4 6 -11 15 -8 37 13 l29 26 -29 -17 c-29 -18 -29 -18 -17 3 6
12 19 27 29 33 15 10 15 11 -3 5 -11 -4 -26 -8 -32 -8 -7 0 -13 -6 -13 -13 0
-27 -27 -2 -36 34 -6 25 -15 38 -29 40 -11 2 -25 10 -31 17 -17 22 -68 -11
-104 -65 -17 -25 -30 -40 -30 -34 0 11 52 88 77 112 13 13 17 22 9 22 -2 0
-20 -18 -39 -39z m107 -27 c11 -6 22 -17 24 -24 3 -8 -7 -5 -23 8 -15 12 -35
22 -44 22 -14 0 -14 2 -1 10 8 5 17 6 20 2 3 -4 14 -12 24 -18z m5 -40 c12
-15 21 -39 21 -55 0 -37 -37 -98 -67 -110 -13 -5 -21 -13 -18 -19 7 -11 -8
-14 -18 -4 -9 10 16 44 33 44 11 1 9 4 -5 12 -11 6 -32 22 -47 36 -33 30 -36
20 -7 -27 28 -47 16 -51 -15 -4 -34 49 -33 70 5 116 39 47 86 52 118 11z"/>
<path d="M2 7017 c1 -31 6 -51 10 -44 13 21 30 -46 23 -96 -7 -59 -15 -78 -26
-71 -5 3 -9 -15 -9 -41 0 -45 0 -45 24 -30 36 24 79 111 78 160 0 50 -28 109
-71 150 l-31 29 2 -57z m78 -87 c10 -38 4 -96 -11 -106 -4 -2 -6 17 -2 44 5
41 1 56 -21 94 -33 56 -33 67 -1 32 14 -15 30 -44 35 -64z"/>
<path d="M6048 7052 c-22 -4 -23 -25 -3 -42 12 -10 16 -9 21 3 9 25 1 43 -18
39z"/>
<path d="M449 7003 c-13 -16 -12 -17 4 -4 9 7 17 15 17 17 0 8 -8 3 -21 -13z"/>
<path d="M8650 6971 l0 -38 78 -6 c112 -9 305 -9 480 -1 l152 7 0 38 0 39
-355 0 -355 0 0 -39z"/>
<path d="M6042 6942 c-16 -10 -5 -42 14 -42 8 0 14 10 14 25 0 26 -7 30 -28
17z"/>
<path d="M0 6894 c0 -8 5 -12 10 -9 6 4 8 11 5 16 -9 14 -15 11 -15 -7z"/>
<path d="M2760 6851 c0 -42 4 -61 13 -61 8 0 11 15 10 48 -2 37 0 42 6 22 9
-24 9 -24 10 -3 1 15 9 24 24 28 12 3 135 4 272 3 l250 -3 3 -22 c2 -13 14
-31 28 -42 17 -13 20 -21 12 -24 -8 -3 -6 -6 5 -6 14 -1 17 8 17 54 l0 55
-227 2 c-254 3 -339 2 -368 -2 -11 -1 -28 1 -37 5 -16 6 -18 0 -18 -54z"/>
<path d="M7813 6903 c-40 -2 -73 -8 -73 -13 0 -6 -5 -10 -11 -10 -5 0 -8 4 -4
9 3 6 -111 10 -304 11 -247 0 -310 -2 -307 -12 3 -7 7 -25 10 -40 5 -20 13
-28 27 -28 11 0 17 5 14 10 -3 6 -1 10 5 10 6 0 8 11 6 23 l-4 24 206 0 c113
-1 200 -3 194 -5 -7 -2 -12 -8 -12 -13 0 -5 40 -9 89 -9 50 0 93 -4 96 -10 3
-5 1 -10 -4 -10 -6 0 -11 -5 -11 -12 0 -9 3 -9 12 0 17 17 148 16 149 0 0 -7
4 -3 10 10 9 24 2 74 -10 70 -3 -1 -39 -4 -78 -5z"/>
<path d="M9101 6883 c-25 -3 -50 -10 -55 -18 -6 -7 -20 -15 -31 -18 -31 -7
196 -8 249 -1 49 7 62 27 24 38 -24 6 -110 5 -187 -1z"/>
<path d="M520 6873 c0 -5 32 -8 70 -8 39 0 70 3 70 8 0 4 -31 7 -70 7 -38 0
-70 -3 -70 -7z"/>
<path d="M5284 6859 c-10 -12 -32 -28 -49 -36 l-30 -14 34 29 34 29 -54 -3
c-30 -2 -90 -5 -134 -7 -90 -4 -130 -20 -187 -75 -51 -49 -66 -114 -50 -220
14 -88 53 -212 81 -259 18 -29 23 -31 63 -26 76 10 112 28 137 67 l25 37 18
-43 18 -43 -3 57 c-2 36 -10 65 -20 76 -18 20 -22 59 -8 81 13 20 28 6 35 -35
5 -25 12 -34 24 -32 18 3 25 26 40 131 9 59 16 74 51 112 45 49 67 112 53 153
l-9 27 -17 -36 c-9 -20 -29 -47 -43 -60 l-27 -24 24 34 c20 29 30 85 17 97 -2
2 -12 -5 -23 -17z"/>
<path d="M434 6855 c-10 -8 -14 -15 -8 -15 5 0 14 4 20 9 5 5 20 11 34 14 l25
4 -26 2 c-14 0 -34 -6 -45 -14z"/>
<path d="M1461 6846 c2 -2 27 -6 54 -9 32 -4 43 -3 30 3 -19 8 -93 14 -84 6z"/>
<path d="M6040 6830 c0 -11 6 -20 14 -20 21 0 31 21 15 31 -22 14 -29 11 -29
-11z"/>
<path d="M1428 6833 c7 -3 16 -2 19 1 4 3 -2 6 -13 5 -11 0 -14 -3 -6 -6z"/>
<path d="M7278 6823 c23 -2 61 -2 85 0 23 2 4 4 -43 4 -47 0 -66 -2 -42 -4z"/>
<path d="M2988 6793 c7 -3 16 -2 19 1 4 3 -2 6 -13 5 -11 0 -14 -3 -6 -6z"/>
<path d="M3028 6793 c7 -3 16 -2 19 1 4 3 -2 6 -13 5 -11 0 -14 -3 -6 -6z"/>
<path d="M1620 6786 c0 -2 8 -10 18 -17 15 -13 16 -12 3 4 -13 16 -21 21 -21
13z"/>
<path d="M3440 6658 c0 -72 2 -129 5 -127 2 3 5 60 6 126 1 104 3 123 17 126
12 3 10 5 -5 6 -23 1 -23 0 -23 -131z"/>
<path d="M9060 6780 c0 -5 -8 -10 -17 -11 -10 0 -4 -5 12 -10 64 -20 229 -9
239 17 4 12 -15 14 -114 14 -73 0 -120 -4 -120 -10z"/>
<path d="M2678 6649 c2 -72 5 -130 7 -128 1 2 4 58 6 124 2 66 8 123 14 127 5
4 1 8 -10 8 -19 0 -20 -6 -17 -131z"/>
<path d="M2741 6728 c1 -24 5 -54 9 -68 6 -19 8 -9 9 37 1 34 -3 65 -9 68 -6
4 -10 -11 -9 -37z"/>
<path d="M2773 6729 c-2 -23 2 -49 7 -58 7 -11 9 0 10 42 0 65 -14 78 -17 16z"/>
<path d="M2838 6763 c6 -2 18 -2 25 0 6 3 1 5 -13 5 -14 0 -19 -2 -12 -5z"/>
<path d="M3350 6761 c0 -6 3 -10 8 -10 4 1 9 0 12 -1 22 -8 41 -7 37 3 -5 15
-57 22 -57 8z"/>
<path d="M7517 6764 c-4 -4 -7 -12 -7 -18 0 -6 5 -4 10 4 9 13 11 13 21 0 9
-12 10 -12 7 -1 -5 17 -21 25 -31 15z"/>
<path d="M7813 6763 c21 -2 41 -11 44 -19 6 -16 33 -19 33 -4 0 6 7 10 15 10
8 0 15 5 15 10 0 6 -30 9 -72 8 -42 -1 -57 -3 -35 -5z"/>
<path d="M6030 6735 c0 -26 7 -29 34 -19 27 10 20 44 -9 44 -20 0 -25 -5 -25
-25z"/>
<path d="M7755 6740 c-3 -6 1 -7 9 -4 18 7 21 14 7 14 -6 0 -13 -4 -16 -10z"/>
<path d="M4220 6730 c0 -5 7 -10 15 -10 8 0 15 5 15 10 0 6 -7 10 -15 10 -8 0
-15 -4 -15 -10z"/>
<path d="M9075 6693 c-21 -6 -36 -23 -29 -34 5 -9 235 -8 259 2 19 7 19 8 -3
8 -13 1 -21 5 -18 10 10 16 -154 27 -209 14z"/>
<path d="M6030 6650 c0 -15 5 -20 18 -18 9 2 17 10 17 18 0 8 -8 16 -17 18
-13 2 -18 -3 -18 -18z"/>
<path d="M2994 6550 c0 -52 1 -74 3 -47 2 26 2 68 0 95 -2 26 -3 4 -3 -48z"/>
<path d="M1512 6578 c-10 -27 -15 -30 -42 -25 -25 6 -30 3 -30 -13 0 -14 7
-20 21 -20 34 0 57 18 64 51 9 41 2 46 -13 7z"/>
<path d="M2843 6545 c0 -38 2 -53 4 -32 2 20 2 52 0 70 -2 17 -4 1 -4 -38z"/>
<path d="M9178 6603 c-29 -7 -20 -23 12 -23 20 0 30 5 30 15 0 15 -9 17 -42 8z"/>
<path d="M6030 6570 c0 -5 11 -10 25 -10 14 0 25 5 25 10 0 6 -11 10 -25 10
-14 0 -25 -4 -25 -10z"/>
<path d="M7403 6573 c9 -2 23 -2 30 0 6 3 -1 5 -18 5 -16 0 -22 -2 -12 -5z"/>
<path d="M9351 6564 c0 -11 3 -14 6 -6 3 7 2 16 -1 19 -3 4 -6 -2 -5 -13z"/>
<path d="M7765 6561 l-30 -7 40 -7 c56 -10 105 -9 105 2 0 20 -54 26 -115 12z"/>
<path d="M5290 6540 c0 -5 5 -10 10 -10 6 0 10 5 10 10 0 6 -4 10 -10 10 -5 0
-10 -4 -10 -10z"/>
<path d="M9343 6515 c-10 -10 -9 -16 2 -25 13 -10 15 -8 15 14 0 30 -1 30 -17
11z"/>
<path d="M9226 6504 c-9 -22 3 -37 18 -24 7 5 26 7 42 4 25 -5 30 -2 31 15 2
18 -4 21 -42 21 -30 0 -45 -5 -49 -16z"/>
<path d="M5160 6481 c0 -11 5 -23 10 -26 6 -3 10 3 10 14 0 11 -4 23 -10 26
-5 3 -10 -3 -10 -14z"/>
<path d="M6040 6479 c0 -24 23 -21 28 4 2 10 -3 17 -12 17 -10 0 -16 -9 -16
-21z"/>
<path d="M2677 6483 c-4 -3 -7 -16 -6 -27 0 -19 1 -19 10 3 10 24 8 36 -4 24z"/>
<path d="M3444 6320 c0 -91 2 -128 3 -82 2 45 2 119 0 165 -1 45 -3 8 -3 -83z"/>
<path d="M7793 6473 c20 -2 54 -2 75 0 20 2 3 4 -38 4 -41 0 -58 -2 -37 -4z"/>
<path d="M1630 6425 c-18 -19 -52 -43 -74 -54 -23 -11 -34 -20 -25 -21 22 0
109 59 127 88 21 32 11 27 -28 -13z"/>
<path d="M5802 6428 c-20 -20 -15 -56 9 -63 28 -9 41 6 37 41 -3 31 -26 42
-46 22z"/>
<path d="M6040 6384 c0 -31 23 -28 28 4 2 15 -2 22 -12 22 -11 0 -16 -9 -16
-26z"/>
<path d="M7490 6368 c0 -5 15 -9 33 -9 31 -2 31 -2 -8 -9 -26 -5 8 -8 97 -8
86 0 136 4 132 10 -3 5 -13 7 -23 4 -12 -5 -11 -2 3 9 17 13 6 14 -107 12 -70
-1 -127 -5 -127 -9z m188 -15 c-10 -2 -26 -2 -35 0 -10 3 -2 5 17 5 19 0 27
-2 18 -5z"/>
<path d="M7857 6359 c-24 -27 -22 -31 15 -27 37 4 47 22 20 37 -14 8 -22 5
-35 -10z"/>
<path d="M4230 6360 c0 -5 5 -10 10 -10 6 0 10 5 10 10 0 6 -4 10 -10 10 -5 0
-10 -4 -10 -10z"/>
<path d="M1478 6343 c6 -2 18 -2 25 0 6 3 1 5 -13 5 -14 0 -19 -2 -12 -5z"/>
<path d="M3382 6310 c0 -19 2 -27 5 -17 2 9 2 25 0 35 -3 9 -5 1 -5 -18z"/>
<path d="M9035 6310 c-20 -21 -32 -27 -41 -19 -8 7 -17 5 -27 -6 -17 -16 -82
-21 -92 -6 -3 5 7 19 22 31 l28 22 -29 -4 c-25 -3 -31 -9 -41 -48 -7 -25 -31
-90 -54 -145 -24 -55 -66 -156 -93 -225 -28 -69 -54 -130 -59 -136 -16 -20 7
-95 40 -128 26 -26 39 -31 75 -30 82 2 102 23 191 200 44 87 90 173 101 189
11 17 33 53 49 82 27 51 56 71 74 49 5 -6 44 -74 86 -150 42 -77 95 -169 118
-205 22 -37 52 -88 67 -116 32 -60 63 -70 99 -31 23 24 23 26 8 71 -9 25 -31
67 -50 93 -41 57 -131 218 -142 252 -4 14 -19 41 -34 60 -44 56 -112 181 -104
192 4 7 1 8 -6 4 -8 -5 -14 0 -18 13 -6 23 -43 30 -43 8 0 -17 -111 -219 -117
-213 -3 2 0 13 6 24 6 11 8 28 4 38 -4 12 -3 15 5 10 7 -4 10 -2 6 7 -2 7 -1
40 5 73 5 32 6 62 2 67 -4 4 -20 -6 -36 -23z"/>
<path d="M7914 6286 c-11 -23 -73 -143 -138 -268 -72 -140 -112 -228 -104
-229 7 0 3 -4 -9 -9 -49 -20 -12 -118 57 -152 50 -25 100 -23 144 7 29 20 41
23 57 15 24 -13 24 -13 -1 35 -28 54 -25 81 14 172 35 80 127 277 165 351 17
34 19 42 7 42 -10 0 -13 -6 -10 -17 4 -13 0 -11 -12 5 -9 12 -23 22 -30 22 -8
0 -14 4 -14 9 0 16 24 18 56 5 29 -12 32 -12 43 12 6 14 11 28 11 32 0 4 -48
7 -108 8 l-107 1 -21 -41z m153 -42 c-3 -3 -12 -4 -19 -1 -8 3 -5 6 6 6 11 1
17 -2 13 -5z m-238 -470 c2 -2 -28 -4 -67 -4 -40 0 -72 4 -72 9 0 8 130 3 139
-5z"/>
<path d="M8376 6267 c-152 -328 -236 -525 -236 -553 0 -25 8 -39 36 -62 20
-17 50 -33 66 -36 36 -7 106 10 130 31 10 9 25 12 37 8 20 -6 20 -5 6 29 -8
19 -15 47 -15 61 0 26 47 146 140 360 29 66 53 125 54 131 1 7 8 19 15 28 7 8
10 24 7 34 -5 15 -20 20 -74 26 -136 12 -133 13 -166 -57z m231 11 c-3 -8 -6
-5 -6 6 -1 11 2 17 5 13 3 -3 4 -12 1 -19z"/>
<path d="M7476 6289 c-15 -17 -33 -43 -40 -58 -17 -31 -80 -91 -98 -91 -6 0
-4 -6 6 -13 18 -13 16 -18 -26 -83 -131 -202 -182 -297 -173 -323 11 -37 81
-98 119 -105 45 -9 101 8 121 36 12 19 16 19 31 7 16 -13 16 -12 0 18 -28 55
-23 100 19 176 20 37 33 67 29 67 -4 0 1 10 12 22 10 12 13 18 7 14 -9 -5 -11
-2 -7 8 3 9 10 14 14 11 10 -6 20 7 59 80 18 33 25 51 15 40 l-17 -20 8 20 c4
11 8 28 9 37 0 9 5 14 11 11 5 -3 4 0 -2 8 -7 7 -13 26 -13 41 0 21 -5 28 -20
28 -11 0 -20 5 -20 11 0 5 5 7 10 4 15 -9 50 4 47 18 -1 6 8 16 21 22 31 14
27 31 -9 39 -63 12 -86 7 -113 -25z m24 -253 c0 -3 -4 -8 -10 -11 -5 -3 -10
-1 -10 4 0 6 5 11 10 11 6 0 10 -2 10 -4z m-185 -266 c-66 -11 -117 -12 -111
-2 2 4 39 8 83 8 71 1 74 1 28 -6z"/>
<path d="M6040 6285 c0 -8 5 -15 10 -15 6 0 10 7 10 15 0 8 -4 15 -10 15 -5 0
-10 -7 -10 -15z"/>
<path d="M4232 6279 c-13 -5 -20 -13 -17 -19 8 -13 42 -13 51 1 10 17 -9 28
-34 18z"/>
<path d="M7418 6273 c-24 -6 -23 -23 1 -23 10 0 21 7 25 15 6 15 4 16 -26 8z"/>
<path d="M7650 6239 c0 -5 5 -7 10 -4 6 3 10 8 10 11 0 2 -4 4 -10 4 -5 0 -10
-5 -10 -11z"/>
<path d="M4935 6208 c-16 -6 -46 -26 -67 -44 -37 -33 -76 -53 -208 -106 -111
-44 -158 -67 -165 -79 -4 -6 15 1 41 14 27 14 90 39 139 57 50 18 114 41 142
51 29 11 58 19 65 19 20 -1 -35 -28 -187 -92 -77 -32 -146 -64 -152 -71 -10
-10 -6 -32 17 -107 16 -52 28 -95 26 -97 -1 -2 -20 42 -41 97 -39 105 -55 129
-55 85 0 -29 -20 -115 -49 -210 -39 -127 -82 -295 -106 -415 -59 -292 -58
-283 -47 -330 6 -25 13 -54 17 -65 4 -13 1 -12 -8 5 -40 68 -42 103 -14 223
14 61 38 173 51 247 14 74 28 146 31 160 l6 25 -12 -25 c-18 -41 -111 -462
-110 -500 3 -83 38 -196 165 -529 58 -150 65 -162 91 -155 28 7 48 -22 71
-107 26 -94 27 -915 2 -1124 -37 -302 -54 -559 -64 -940 -5 -233 -6 -241 -29
-264 -25 -25 -45 -21 -45 10 0 12 -7 19 -20 19 -11 0 -20 -4 -20 -9 0 -18 12
-41 19 -37 4 3 13 1 21 -4 12 -7 12 -12 2 -22 -9 -9 -12 -9 -12 4 0 12 -7 14
-32 9 -23 -5 -32 -13 -35 -31 -5 -33 -8 -34 -61 -33 -31 1 -53 -4 -65 -15 -17
-15 -17 -15 -11 1 5 15 -1 17 -50 17 -49 0 -56 -2 -56 -20 0 -13 -7 -20 -20
-20 -25 0 -27 -37 -2 -43 9 -2 0 -2 -20 0 -35 4 -38 3 -38 -21 0 -19 -5 -26
-20 -26 -11 0 -20 5 -20 10 0 6 -8 10 -19 10 -10 0 -21 9 -24 20 -3 13 -11 18
-21 14 -10 -4 -16 -22 -18 -57 -3 -54 2 -50 -81 -71 -26 -6 -27 -5 -17 15 9
16 9 20 0 14 -6 -4 -15 -18 -20 -31 -6 -14 -19 -28 -30 -32 -31 -12 -90 -2
-90 14 0 20 -113 19 -134 -1 -8 -8 -21 -15 -29 -15 -9 0 -18 -6 -21 -12 -5
-10 -7 -10 -12 0 -3 6 -23 12 -45 12 -32 0 -39 -3 -39 -20 0 -13 7 -20 20 -20
11 0 20 -6 20 -14 0 -16 -43 -26 -114 -26 l-52 0 4 40 4 40 -81 0 -81 0 0 -40
0 -40 -80 0 c-73 0 -80 -2 -80 -20 0 -18 -7 -20 -60 -20 l-60 0 0 41 c0 35 -3
41 -18 37 -10 -3 -23 1 -30 9 -8 7 -8 13 -2 13 5 0 10 9 10 20 0 32 -17 23
-44 -22 -20 -34 -23 -45 -13 -57 10 -12 9 -13 -1 -7 -9 6 -12 3 -10 -9 2 -10
-3 -20 -11 -23 -9 -3 -11 0 -6 9 6 11 5 12 -5 2 -12 -11 -11 -16 6 -29 16 -13
16 -15 2 -10 -10 3 -18 1 -18 -4 0 -6 -8 -10 -17 -10 -9 0 -13 -3 -10 -7 4 -3
-1 -12 -11 -20 -9 -8 -12 -12 -5 -9 6 4 14 2 18 -4 3 -5 -1 -10 -9 -10 -9 0
-16 -8 -17 -17 0 -12 -2 -13 -6 -5 -3 8 -16 -5 -34 -32 -43 -69 -68 -125 -58
-132 5 -3 9 -11 9 -17 0 -9 -2 -9 -8 0 -12 19 -24 5 -102 -122 -40 -66 -87
-139 -104 -162 -17 -22 -38 -54 -47 -70 -23 -40 -259 -410 -296 -463 -17 -25
-29 -48 -26 -53 2 -4 287 -4 631 0 345 4 713 7 817 7 105 0 484 -1 844 -2 360
-1 657 0 660 3 3 3 6 140 7 304 3 337 11 537 24 596 12 51 13 315 1 315 -5 0
-34 -12 -65 -26 -31 -14 -60 -23 -65 -19 -6 3 -25 -4 -43 -15 -18 -11 -40 -20
-50 -20 -9 0 -18 -4 -20 -10 -1 -5 -43 -12 -93 -15 -56 -2 -84 -1 -75 5 21 13
7 22 -24 14 -15 -3 -23 -11 -19 -18 4 -8 2 -8 -7 1 -7 6 -9 16 -6 21 7 12 211
132 224 132 26 0 61 43 68 83 6 35 8 39 16 22 6 -16 7 -14 3 8 -9 46 7 217 22
232 8 8 13 34 12 67 -1 47 -2 49 -10 23 -7 -24 -7 -20 -4 18 3 34 1 46 -7 41
-8 -5 -9 1 -3 22 4 16 11 101 15 189 4 88 11 183 14 210 3 28 17 160 31 295
13 135 30 292 36 350 10 97 21 167 94 570 15 80 41 206 59 280 31 126 34 132
40 95 9 -51 22 -113 51 -250 83 -386 167 -983 186 -1310 8 -148 17 -245 35
-369 6 -40 5 -48 -6 -41 -10 6 -11 4 -5 -11 5 -10 9 -31 9 -46 1 -14 4 -24 9
-21 14 8 8 -114 -7 -126 -11 -9 -15 -3 -20 34 -8 47 -25 62 -27 23 -1 -13 -3
-41 -5 -63 -2 -22 -5 -74 -7 -115 -4 -79 -21 -130 -44 -130 -7 0 -14 -8 -14
-17 -3 -31 3 -226 8 -263 2 -19 8 -267 12 -550 5 -283 9 -516 10 -517 3 -7
2971 -2 2971 5 0 5 -105 167 -232 361 -128 193 -257 391 -287 439 -156 249
-283 465 -375 634 -17 32 -34 58 -39 58 -4 0 0 -11 9 -25 9 -14 12 -25 8 -25
-5 0 -1 -5 8 -11 9 -5 15 -16 12 -23 -3 -8 -1 -17 5 -21 6 -3 11 -21 11 -38
-1 -29 -2 -30 -14 -14 -18 23 -106 25 -166 4 -25 -9 -56 -17 -69 -17 -37 0
-91 -22 -91 -37 0 -7 -9 -13 -20 -13 -13 0 -20 -7 -20 -20 0 -13 -7 -20 -20
-20 -13 0 -20 -7 -20 -19 0 -25 -37 -33 -138 -31 -101 3 -102 2 -102 -15 0
-11 -11 -15 -40 -15 -39 0 -40 -1 -40 -35 0 -27 -4 -35 -17 -35 -10 -1 -44 -3
-75 -6 -54 -6 -58 -5 -58 16 0 20 -1 20 -25 -4 -32 -32 -31 -40 4 -73 15 -16
33 -38 40 -51 7 -12 16 -20 20 -17 5 2 8 -1 7 -8 -2 -21 73 -156 92 -166 13
-7 49 -4 118 10 54 10 104 19 111 19 7 0 -8 -56 -38 -144 -53 -152 -53 -153
-26 -289 1 -6 -24 -14 -58 -19 -56 -8 -62 -6 -97 19 -119 89 -485 410 -476
418 2 1 30 -1 63 -6 33 -4 88 -8 123 -8 60 -1 62 0 57 22 -3 12 -12 67 -20
121 -12 79 -12 103 -2 115 11 14 10 14 -5 2 -10 -7 -18 -22 -18 -33 0 -14 -5
-18 -16 -14 -9 3 -18 6 -21 6 -3 0 0 6 6 14 9 11 9 16 0 22 -7 4 -9 3 -5 -4 3
-6 2 -13 -3 -16 -11 -7 -81 24 -81 36 0 4 -18 8 -40 8 -44 0 -120 20 -120 32
0 5 -9 8 -20 8 -11 0 -20 5 -20 10 0 6 -9 10 -20 10 -11 0 -20 -4 -20 -10 0
-5 -9 -10 -20 -10 -11 0 -20 5 -20 11 0 7 -10 9 -26 5 -14 -4 -41 -4 -60 0
-31 6 -34 10 -34 39 0 31 -3 34 -40 40 -30 5 -40 11 -40 26 0 10 -4 19 -10 19
-5 0 -10 9 -10 20 0 29 -79 41 -101 14 -6 -8 -18 -14 -26 -14 -8 0 32 31 89
69 118 79 168 122 168 147 0 17 -1 17 -12 1 -11 -15 -12 -10 -10 31 3 35 -1
52 -12 61 -14 12 -16 10 -16 -10 0 -13 -8 -33 -16 -44 -16 -20 -16 -20 -10 2
5 17 1 26 -19 39 -15 10 -24 23 -21 31 3 8 2 12 -2 9 -5 -3 -16 4 -25 15 -9
10 -14 19 -11 19 4 0 1 7 -6 15 -7 8 -10 15 -6 15 4 0 -1 12 -11 28 -9 15 -18
28 -19 30 -1 2 -17 -6 -35 -17 -52 -32 -58 -25 -11 11 33 26 42 39 42 63 0 17
-5 36 -11 42 -6 6 -15 88 -20 199 -12 253 -26 435 -50 639 -11 94 -23 200 -26
238 -3 37 -8 67 -12 67 -3 0 -6 223 -6 495 -1 340 2 494 10 492 17 -6 23 -216
16 -606 -3 -204 -3 -372 1 -374 4 -1 20 -90 35 -197 16 -107 29 -185 31 -173
3 23 -19 229 -40 363 -7 46 -11 186 -9 365 1 160 -1 372 -5 473 l-6 182 -32 0
c-17 0 -103 -9 -190 -20 -88 -11 -176 -19 -195 -19 -20 1 -2 6 39 10 135 16
345 51 353 59 8 7 4 38 -48 375 -25 164 -33 329 -15 340 6 4 10 -18 10 -59 0
-36 5 -96 10 -133 35 -231 72 -464 79 -498 l9 -40 1 35 c0 19 -6 76 -14 125
-15 90 -43 280 -65 448 -13 91 -6 292 10 302 14 9 54 -188 95 -470 16 -108 56
-320 77 -402 7 -31 17 -44 38 -53 30 -12 93 -7 120 10 10 7 4 8 -20 5 -34 -6
-33 -5 9 12 46 19 73 51 32 38 -24 -7 -61 2 -61 16 0 5 10 9 22 9 21 0 21 2
14 103 -3 56 -13 161 -21 232 -38 324 -57 498 -66 595 -6 58 -22 161 -36 230
-53 265 -62 316 -63 355 0 49 -10 38 -40 -43 -12 -34 -24 -61 -26 -59 -2 2 0
28 6 57 5 29 10 61 10 71 0 20 5 17 -225 118 -88 39 -153 71 -145 72 8 0 35 0
60 0 l45 -2 -50 31 c-90 54 -146 70 -248 69 -51 0 -105 -5 -122 -11z m-290
-940 c9 -46 29 -154 46 -241 17 -88 28 -161 26 -163 -10 -10 -37 91 -38 140
-1 28 -5 -1 -9 -64 -8 -113 -38 -300 -50 -300 -13 0 -107 313 -116 388 -5 48
-2 67 19 117 13 33 32 85 42 115 10 30 24 70 33 88 20 43 27 31 47 -80z m-122
-423 c14 -49 28 -99 32 -110 6 -19 6 -19 -8 -2 -8 10 -26 65 -41 122 -40 162
-28 155 17 -10z m229 -466 c100 -26 257 -72 297 -85 8 -2 12 -7 9 -9 -2 -3
-45 6 -94 19 -49 13 -140 38 -203 55 -63 16 -119 35 -125 41 -14 14 -9 13 116
-21z m-162 0 c0 -14 -5 -19 -17 -17 -23 4 -28 25 -6 31 10 3 19 5 21 6 1 0 2
-8 2 -20z m49 -470 c0 -605 -2 -674 -26 -829 -12 -80 -27 -217 -34 -305 -23
-313 -28 -341 -24 -135 5 205 26 447 51 563 11 54 14 166 14 525 0 403 4 541
16 529 2 -2 3 -158 3 -348z m169 -1719 c0 -23 -1 -22 -8 5 -4 17 -8 46 -8 65
l0 35 9 -40 c4 -22 8 -51 7 -65z m-17 -332 c-6 -17 -12 -56 -13 -87 l-1 -56
-6 70 c-5 52 -3 72 6 78 7 4 14 20 14 35 1 18 3 21 6 9 3 -10 0 -32 -6 -49z
m-31 38 c0 -2 -7 -7 -16 -10 -8 -3 -12 -2 -9 4 6 10 25 14 25 6z m650 -31 c19
-36 8 -40 -12 -4 -9 16 -14 29 -9 29 4 0 14 -11 21 -25z m250 21 c0 -2 -8 -10
-17 -17 -16 -13 -17 -12 -4 4 13 16 21 21 21 13z m1754 -232 c8 -22 -4 -40
-15 -23 -11 18 -11 39 0 39 5 0 12 -7 15 -16z m-3518 -69 c10 -24 -17 -76 -43
-86 -55 -21 -67 -1 -39 66 13 29 20 35 46 35 18 0 33 -6 36 -15z m-1139 -47
c-3 -8 -6 -5 -6 6 -1 11 2 17 5 13 3 -3 4 -12 1 -19z m2723 -43 c0 -8 -8 -15
-18 -15 -10 0 -27 -7 -39 -15 -12 -8 -29 -16 -40 -18 -10 -2 -29 -9 -41 -16
-13 -7 -26 -10 -29 -7 -4 3 25 19 63 36 38 17 76 35 84 40 20 12 20 12 20 -5z
m-1000 -68 c0 -7 -9 -13 -21 -14 -17 -2 -18 1 -9 13 15 17 30 18 30 1z m-647
-111 c27 -59 94 -162 138 -214 16 -18 35 -45 43 -60 l14 -27 -108 3 -108 4
-16 -53 c-8 -30 -30 -106 -48 -170 l-32 -117 -131 -4 c-71 -3 -132 -4 -134 -2
-2 2 10 53 28 114 18 60 29 115 25 122 -4 7 -3 10 1 5 8 -7 25 32 39 89 l6 24
-85 -6 c-47 -4 -85 -4 -85 -1 0 3 24 22 53 43 72 53 264 214 312 263 21 23 45
41 51 41 7 0 24 -24 37 -54z m417 -20 c0 -2 -7 -7 -16 -10 -8 -3 -12 -2 -9 4
6 10 25 14 25 6z m-40 -21 c0 -2 -10 -10 -22 -16 -21 -11 -22 -11 -9 4 13 16
31 23 31 12z m-85 -55 c-3 -5 -12 -10 -18 -10 -7 0 -6 4 3 10 19 12 23 12 15
0z m-95 -65 c-13 -14 -27 -25 -32 -25 -9 0 42 49 51 50 3 0 -6 -11 -19 -25z
m910 -45 c0 -5 -4 -10 -10 -10 -5 0 -10 5 -10 10 0 6 5 10 10 10 6 0 10 -4 10
-10z"/>
<path d="M7604 6187 c3 -10 -1 -29 -10 -43 -9 -13 -14 -24 -11 -24 10 0 49 71
43 77 -3 4 -6 0 -6 -8 0 -12 -2 -11 -11 1 -9 13 -10 12 -5 -3z"/>
<path d="M940 6132 c-41 -20 -66 -66 -73 -134 -3 -36 -1 -45 9 -41 14 5 25
-24 23 -62 -1 -42 14 -107 22 -94 6 10 14 8 35 -11 25 -24 25 -23 -6 25 -29
46 -31 55 -26 108 3 32 13 75 23 94 16 34 18 35 61 29 25 -3 62 -6 83 -6 l38
0 4 -47 c3 -38 4 -33 5 23 2 62 -1 73 -20 92 -48 44 -119 54 -178 24z"/>
<path d="M1352 5711 c-2 -65 -4 -73 -19 -68 -10 3 -64 22 -121 43 -56 20 -104
35 -107 33 -2 -3 -4 -40 -4 -84 1 -250 -10 -353 -48 -462 l-18 -52 -1 249 c0
160 3 250 9 250 6 0 2 9 -8 20 -10 11 -22 20 -27 20 -6 0 -21 -9 -35 -20 -14
-11 -35 -20 -46 -20 -17 0 -18 -3 -9 -12 10 -10 17 -10 33 1 l21 13 -3 -199
c-2 -109 0 -220 4 -248 5 -36 2 -29 -12 25 -10 41 -28 111 -40 155 -20 74 -45
349 -34 368 7 11 -1 9 -113 -28 -57 -19 -119 -35 -137 -35 -56 0 -63 -13 -75
-145 -7 -85 -21 -152 -45 -230 -67 -213 -69 -243 -25 -285 21 -19 21 -20 2
-21 -13 0 -10 -4 11 -11 17 -6 99 -11 182 -12 107 -1 153 -4 153 -12 0 -7 7
-15 16 -18 28 -11 177 -6 314 10 97 11 185 14 315 11 174 -5 215 -10 215 -27
0 -9 276 -7 285 2 9 8 -13 48 -26 48 -6 0 -7 -4 -4 -10 4 -6 -33 -10 -103 -10
l-110 0 -6 228 c-3 125 -8 250 -9 279 l-4 51 85 8 c63 5 86 3 92 -6 4 -7 11
-60 15 -119 3 -59 10 -113 14 -119 5 -9 43 -12 137 -10 l129 3 7 45 c11 74 9
460 -2 460 -6 0 -10 -76 -11 -207 0 -115 -4 -226 -8 -248 -6 -26 -9 51 -10
213 l-1 252 -395 0 -395 0 -1 -27 c-1 -16 -1 -137 -1 -270 1 -144 -3 -243 -8
-243 -6 0 -11 113 -13 273 -1 149 -3 239 -5 198z m373 -575 c4 -68 5 -130 3
-137 -3 -9 -26 -12 -79 -10 -121 3 -134 7 -135 44 -1 18 -20 64 -42 102 -23
39 -44 82 -48 98 l-6 27 150 0 150 0 7 -124z m-1035 -23 c0 -2 -12 -3 -26 -3
-25 0 -26 2 -20 42 10 63 18 66 32 12 7 -27 13 -50 14 -51z m641 5 c7 -2 -8
-16 -34 -30 -26 -15 -47 -24 -47 -21 0 3 7 30 16 60 l16 55 18 -30 c10 -16 24
-32 31 -34z m-336 -77 c55 -6 128 -12 163 -12 50 -1 62 -4 58 -15 -3 -8 -1
-14 4 -14 6 0 10 7 10 15 0 20 16 19 24 -1 10 -27 7 -31 -24 -28 -16 2 -30 0
-30 -5 0 -10 -26 -9 -36 1 -3 4 -17 2 -31 -3 -18 -6 -30 -6 -39 2 -11 9 -14 8
-14 -1 0 -9 -9 -11 -30 -6 -17 3 -30 1 -30 -4 0 -16 -40 -11 -47 6 -4 10 -8
12 -13 5 -7 -13 -27 -13 -142 -5 -43 3 -78 10 -78 16 0 5 8 23 18 40 19 34 12
33 237 9z"/>
<path d="M1028 5753 c7 -3 16 -2 19 1 4 3 -2 6 -13 5 -11 0 -14 -3 -6 -6z"/>
<path d="M910 5730 c6 -11 13 -20 16 -20 2 0 0 9 -6 20 -6 11 -13 20 -16 20
-2 0 0 -9 6 -20z"/>
<path d="M3510 5712 c0 -7 27 -37 59 -68 103 -96 136 -166 101 -209 -10 -12
-17 -12 -46 0 -29 12 -94 11 -94 -1 0 -2 10 -22 22 -46 27 -50 105 -134 133
-141 16 -4 15 -5 -5 -6 -15 0 -31 4 -38 11 -9 9 -12 8 -12 -7 0 -23 -93 94
-117 148 -10 21 -22 36 -29 33 -15 -6 -85 68 -108 112 -9 18 -16 56 -16 88 0
46 -2 54 -14 45 -7 -6 -11 -21 -9 -34 5 -26 -19 -52 -41 -44 -8 3 -16 16 -18
29 -9 48 -31 -35 -33 -122 -1 -47 0 -57 2 -22 2 34 9 62 15 62 5 0 8 6 5 13
-3 8 -1 20 4 28 9 14 7 -28 -3 -61 -3 -8 -3 -12 -1 -7 11 18 23 4 23 -28 0
-37 18 -85 32 -85 4 0 7 -28 7 -62 -1 -35 -4 -53 -6 -40 -3 13 -12 22 -22 22
-9 0 -22 12 -29 28 l-12 27 6 -30 c3 -16 16 -52 29 -80 55 -119 160 -190 296
-201 l77 -7 7 -119 c10 -162 -3 -435 -20 -442 -10 -4 -11 -13 -4 -38 5 -21 5
-46 0 -66 -5 -18 -6 -32 -1 -32 4 0 7 -45 6 -100 l-1 -100 32 0 33 0 1 128 c1
70 0 271 -1 448 l-2 321 67 7 c37 4 84 15 104 26 41 21 152 119 135 120 -6 0
-21 -11 -34 -25 -13 -14 -28 -25 -34 -25 -6 0 -17 -9 -24 -21 -7 -12 -16 -18
-19 -15 -3 3 -22 -1 -41 -10 -41 -17 -60 -7 -44 23 6 10 22 25 36 33 27 14 35
30 15 30 -7 0 -9 11 -5 31 5 25 2 32 -13 36 -13 3 -21 17 -25 43 -3 21 -12 40
-20 43 -8 3 -33 37 -55 75 -22 38 -55 87 -73 108 -62 74 -178 188 -178 176z
m289 -498 c-6 -8 -15 -14 -20 -14 -14 0 -11 17 6 34 8 8 16 23 16 33 1 10 4 5
6 -10 3 -16 -1 -35 -8 -43z m-36 -9 c9 -21 -11 -29 -28 -11 -20 19 -19 26 4
26 10 0 21 -7 24 -15z m-69 -757 c3 -7 7 -25 10 -41 6 -26 6 -27 -14 -10 -11
10 -20 28 -20 40 0 24 18 32 24 11z"/>
<path d="M6453 5622 c80 -84 87 -95 87 -132 0 -22 -5 -40 -11 -40 -5 0 -7 -5
-3 -11 4 -8 1 -8 -12 -1 -24 12 -103 24 -113 17 -5 -2 11 -44 35 -92 28 -57
39 -90 32 -94 -6 -4 -7 -12 -4 -18 4 -6 5 -11 2 -11 -3 0 -24 37 -46 83 -42
83 -66 117 -82 117 -14 0 2 -49 40 -128 l36 -73 -22 -21 c-19 -19 -24 -20 -52
-8 -17 7 -50 30 -73 52 -50 46 -61 48 -52 7 6 -24 4 -30 -6 -27 -8 3 -13 16
-11 28 l2 24 -21 -25 c-18 -20 -20 -21 -17 -5 1 10 -3 21 -9 23 -10 4 -11 -1
-4 -19 5 -13 15 -22 24 -20 20 3 49 -42 36 -55 -7 -7 4 -23 33 -48 64 -54 127
-83 201 -91 l65 -7 8 -86 c4 -47 4 -221 0 -385 -5 -243 -9 -303 -21 -315 -12
-13 -17 -11 -34 10 -25 30 -29 5 -5 -30 13 -18 18 -20 26 -10 7 10 7 8 3 -8
-11 -40 64 -86 78 -48 4 8 2 17 -3 20 -6 4 -10 14 -10 23 0 12 11 4 35 -23 40
-46 47 -35 10 15 -14 19 -25 44 -25 56 0 13 -4 25 -9 28 -12 7 -5 85 9 101 7
8 8 92 4 241 -3 126 -2 272 3 324 l8 95 69 8 c131 14 226 77 296 196 41 71 70
178 70 258 0 70 -8 92 -31 86 -22 -6 -23 -14 -8 -81 8 -32 8 -55 2 -66 -8 -14
-12 -6 -22 38 -7 31 -15 56 -19 56 -4 0 -17 -17 -29 -38 -26 -46 -118 -148
-145 -163 -25 -14 -54 10 -63 52 -6 25 -2 35 27 60 l33 31 -35 -5 c-42 -6 -67
5 -101 45 -46 55 -51 26 -6 -41 79 -120 80 -122 70 -132 -12 -12 -41 20 -85
92 -39 66 -142 183 -201 230 -25 20 -7 -4 46 -59z"/>
<path d="M2882 5650 c-7 -11 -8 -20 -3 -20 9 0 24 30 18 36 -1 2 -8 -6 -15
-16z"/>
<path d="M6170 5625 c-6 -24 -4 -73 3 -66 5 5 7 24 4 42 -2 19 -5 30 -7 24z"/>
<path d="M4371 5594 c0 -11 3 -14 6 -6 3 7 2 16 -1 19 -3 4 -6 -2 -5 -13z"/>
<path d="M2371 5583 l-74 -4 7 -190 c3 -105 4 -237 0 -294 -6 -92 -9 -104 -28
-113 -12 -6 -15 -11 -7 -11 8 -1 22 -8 32 -17 15 -13 42 -16 144 -16 83 0 131
4 138 11 9 9 9 14 -1 20 -10 6 -14 50 -17 172 -2 90 -6 181 -10 202 -9 45 -2
47 32 7 14 -17 35 -36 46 -42 13 -7 5 7 -21 37 -32 37 -39 51 -32 65 6 11 5
21 -2 28 -6 6 -13 42 -16 81 l-5 71 -56 -2 c-31 -1 -89 -4 -130 -5z m127 -86
c24 -22 28 -59 12 -101 -6 -18 -21 -28 -51 -36 -39 -11 -44 -10 -67 13 -18 18
-26 40 -29 74 -5 48 -4 50 28 66 39 19 74 13 107 -16z m6 -342 c39 -36 33
-104 -10 -124 -45 -20 -80 -14 -108 20 -39 45 -31 85 22 113 39 22 65 19 96
-9z"/>
<path d="M2407 5473 c-4 -3 -7 -11 -7 -17 0 -6 5 -5 12 2 6 6 9 14 7 17 -3 3
-9 2 -12 -2z"/>
<path d="M2416 5114 c-9 -22 12 -46 38 -42 15 2 21 10 21 28 0 20 -6 26 -26
28 -18 2 -29 -3 -33 -14z"/>
<path d="M3771 5493 c18 -21 38 -42 43 -48 5 -5 3 1 -4 13 -16 33 -52 72 -64
72 -5 0 6 -17 25 -37z"/>
<path d="M125 5500 c-3 -6 -25 -9 -49 -9 -23 1 -51 -3 -62 -9 -19 -10 -19 -11
1 -18 11 -4 25 -14 31 -22 8 -11 13 -12 18 -4 4 7 16 12 28 12 18 0 19 -5 16
-44 -4 -38 -2 -46 18 -56 12 -7 36 -11 52 -8 22 3 29 1 25 -9 -7 -17 -45 -26
-84 -21 -24 4 -35 -1 -54 -24 -28 -33 -35 -35 -35 -7 0 12 8 23 20 26 13 4 20
14 20 30 0 13 4 21 10 18 13 -8 13 8 -1 38 -8 17 -19 23 -45 24 l-34 1 0 -81
c0 -45 5 -89 10 -97 6 -10 10 -11 10 -2 0 6 7 12 15 12 12 0 11 -9 -10 -47
-22 -43 -25 -59 -25 -160 l0 -113 118 6 c64 4 121 10 125 14 4 3 -2 18 -13 32
-14 19 -17 27 -8 30 9 3 13 36 13 116 0 76 4 112 11 112 21 0 64 41 64 61 0
26 -16 24 -25 -3 l-8 -23 -4 24 c-3 13 0 28 6 34 16 16 -17 57 -46 57 -13 0
-22 -4 -18 -9 3 -6 -3 -15 -14 -20 -27 -15 -28 -14 -35 13 -4 17 -11 23 -23
20 -14 -4 -18 2 -20 25 -1 16 4 35 12 41 8 7 15 18 15 26 0 17 -17 27 -25 14z
m49 -301 c26 -30 34 -81 18 -105 -11 -16 -48 -34 -72 -34 -64 0 -96 108 -44
149 37 29 68 26 98 -10z"/>
<path d="M90 5160 c-16 -30 4 -60 39 -60 36 0 47 24 26 56 -19 29 -51 31 -65
4z"/>
<path d="M7953 5453 l-53 -4 0 -470 0 -469 235 2 235 3 1 30 c4 111 6 883 2
898 -4 15 -21 17 -186 15 -100 -1 -206 -3 -234 -5z m360 -464 l-2 -394 -160
-3 -161 -2 0 197 c0 109 -3 288 -7 398 l-6 200 169 -1 169 0 -2 -395z"/>
<path d="M8280 5010 c0 -5 7 -10 16 -10 8 0 12 5 9 10 -3 6 -10 10 -16 10 -5
0 -9 -4 -9 -10z"/>
<path d="M3829 5405 c17 -54 21 -61 16 -25 -3 19 -10 39 -15 44 -7 7 -7 1 -1
-19z"/>
<path d="M7393 5423 l-33 -4 0 -243 0 -243 46 -7 c26 -3 111 -6 190 -6 l144 0
0 248 0 249 -112 6 c-116 7 -178 7 -235 0z m317 -258 c0 -243 9 -220 -87 -209
l-53 7 0 113 0 113 68 4 c37 2 -2 4 -87 5 l-153 2 6 31 c3 17 6 58 6 90 l0 58
150 0 150 1 0 -215z m-156 -2 c0 -13 -1 -63 -2 -112 l-2 -89 -70 -4 -70 -3 0
112 0 112 38 4 c20 2 53 4 72 3 30 -1 35 -5 34 -23z"/>
<path d="M7556 5335 c4 -8 8 -15 10 -15 2 0 4 7 4 15 0 8 -4 15 -10 15 -5 0
-7 -7 -4 -15z"/>
<path d="M8679 5423 l-147 -4 -4 -242 c-2 -133 -2 -244 0 -247 2 -3 91 -6 197
-8 l193 -3 7 53 c3 29 5 143 3 253 l-3 200 -50 1 c-27 0 -116 -1 -196 -3z
m219 -130 l3 -93 -161 0 -160 0 0 89 0 89 127 1 c70 1 129 4 132 7 3 3 17 4
31 2 25 -3 25 -5 28 -95z m0 -226 l-3 -121 -70 3 c-38 2 -86 4 -105 5 -19 1
-61 3 -92 4 l-58 2 0 115 0 114 165 -1 166 0 -3 -121z"/>
<path d="M8748 5353 c-2 -10 -1 -29 3 -43 6 -20 7 -17 8 18 1 44 -4 54 -11 25z"/>
<path d="M8742 5065 l1 -90 7 80 c3 44 2 84 -2 90 -4 5 -7 -31 -6 -80z"/>
<path d="M9099 5310 c-1 -66 -1 -127 -1 -135 0 -8 0 -69 1 -135 l1 -120 78 0
c44 0 121 3 172 7 l93 6 -5 237 c-2 130 -8 242 -12 248 -5 8 -54 12 -167 12
l-159 0 -1 -120z m285 23 c11 -67 7 -113 -9 -119 -8 -4 -31 -3 -50 0 -31 6
-35 10 -35 39 0 27 28 126 30 105 0 -4 10 -3 23 2 33 13 34 13 41 -27z m-218
-115 c13 2 27 8 30 13 3 5 14 9 25 9 16 0 19 5 14 20 -5 15 -3 18 8 14 12 -4
31 -55 24 -60 -1 -1 -32 -4 -69 -7 l-68 -5 2 62 2 61 3 -56 c4 -54 5 -56 29
-51z m231 -45 c-12 -11 -77 -14 -95 -4 -13 8 -2 10 42 11 33 0 56 -3 53 -7z
m-55 -128 c12 5 17 -4 22 -36 4 -23 5 -43 3 -45 -2 -2 -20 -1 -40 3 -34 5 -37
9 -37 37 0 34 19 63 30 46 4 -6 13 -8 22 -5z m-112 -69 c8 -2 -9 -4 -37 -5
-29 0 -53 3 -53 7 0 7 52 6 90 -2z"/>
<path d="M10063 5382 c-3 -7 -12 -11 -21 -7 -11 4 -13 -1 -9 -22 22 -113 16
-213 -14 -213 -12 0 -11 7 2 32 6 11 8 22 5 25 -3 3 -10 -6 -15 -19 -10 -27
-93 -80 -108 -69 -4 3 -21 31 -37 61 -46 88 -51 89 -48 10 4 -68 4 -70 28 -64
19 5 23 3 18 -10 -7 -18 21 -52 31 -36 3 5 11 10 16 10 6 0 7 -5 4 -10 -3 -6
2 -13 12 -17 10 -3 27 -17 38 -30 20 -24 55 -24 55 -1 0 5 5 6 11 2 6 -4 7 -9
2 -13 -5 -3 -6 -23 0 -49 7 -36 11 -41 23 -31 8 6 14 22 14 36 0 28 28 75 41
67 5 -3 9 -49 10 -102 1 -108 12 -94 23 31 8 77 26 111 47 90 12 -12 49 -6 49
8 0 5 -8 9 -17 9 -17 1 -17 1 -1 14 16 11 18 30 17 135 -1 110 -3 121 -19 121
-40 0 -45 -8 -42 -71 5 -73 -10 -73 -28 1 -7 27 -15 50 -18 50 -15 0 -30 -16
-35 -35 -2 -11 -5 -2 -6 20 -1 30 -4 36 -11 25 -7 -11 -10 -7 -10 18 0 31 1
32 48 33 42 1 59 0 86 -4 5 -1 11 4 13 11 7 18 -147 12 -154 -6z"/>
<path d="M2718 5383 c7 -3 16 -2 19 1 4 3 -2 6 -13 5 -11 0 -14 -3 -6 -6z"/>
<path d="M3975 5380 c3 -5 8 -10 11 -10 2 0 4 5 4 10 0 6 -5 10 -11 10 -5 0
-7 -4 -4 -10z"/>
<path d="M6120 5340 c0 -8 5 -22 10 -30 9 -13 10 -13 10 0 0 8 -5 22 -10 30
-9 13 -10 13 -10 0z"/>
<path d="M3892 5305 c0 -16 2 -22 5 -12 2 9 2 23 0 30 -3 6 -5 -1 -5 -18z"/>
<path d="M9715 5307 c-25 -39 -15 -77 39 -150 28 -37 52 -63 54 -57 2 6 -5 21
-16 33 -11 12 -22 33 -24 47 -2 18 -8 24 -23 22 -17 -2 -17 -1 -5 8 13 8 13
11 1 19 -10 7 -12 21 -8 55 7 52 4 56 -18 23z"/>
<path d="M9947 5323 c-3 -5 -1 -17 4 -28 7 -17 8 -17 8 8 1 27 -4 34 -12 20z"/>
<path d="M2600 5218 c12 -21 26 -38 31 -38 14 0 11 7 -22 42 l-31 33 22 -37z"/>
<path d="M9965 5170 c-3 -5 -1 -10 4 -10 6 0 11 5 11 10 0 6 -2 10 -4 10 -3 0
-8 -4 -11 -10z"/>
<path d="M9043 4885 c0 -33 2 -45 4 -27 2 18 2 45 0 60 -2 15 -4 0 -4 -33z"/>
<path d="M1780 4890 c-13 -8 -12 -10 3 -10 9 0 17 5 17 10 0 12 -1 12 -20 0z"/>
<path d="M0 4849 c0 -30 25 -44 66 -37 18 3 19 -8 26 -187 11 -305 -5 -491
-46 -517 -19 -12 -17 -2 9 68 20 54 25 83 23 138 -2 44 -7 71 -15 74 -9 2 -13
-13 -14 -55 -1 -43 -3 -50 -8 -28 -3 18 -13 31 -24 33 -15 3 -17 -6 -17 -73 0
-42 5 -85 13 -96 10 -17 10 -23 0 -26 -10 -4 -13 -64 -13 -254 l0 -249 53 1
c28 0 72 4 97 7 42 7 45 9 57 51 7 24 18 89 24 146 6 57 15 108 19 115 5 9 27
6 86 -10 44 -13 122 -33 175 -46 53 -13 146 -39 205 -58 60 -18 143 -42 184
-51 354 -82 881 -265 1167 -407 225 -111 499 -296 670 -453 82 -74 184 -202
227 -284 59 -114 69 -154 75 -306 l6 -140 14 87 c13 78 12 95 -3 165 -9 43
-17 86 -17 96 0 10 -11 38 -24 63 -13 25 -21 52 -18 60 3 7 0 14 -5 14 -6 0
-16 16 -23 35 -7 19 -17 35 -21 35 -4 0 -8 9 -8 19 0 11 -4 22 -10 26 -5 3 -7
11 -4 18 2 7 -13 29 -33 49 -80 76 -141 128 -152 128 -6 0 -26 14 -44 31 -17
17 -76 63 -129 102 -54 38 -95 75 -91 80 3 6 2 7 -4 4 -12 -7 -145 78 -136 87
4 3 18 -1 32 -11 l26 -16 -19 21 c-12 14 -26 20 -40 17 -12 -3 -47 8 -81 24
-33 17 -52 30 -42 31 10 0 28 -5 39 -11 11 -6 18 -7 14 -1 -3 5 3 17 14 27 11
10 20 23 20 30 0 6 11 17 25 23 14 6 25 16 25 22 0 6 -9 6 -24 -1 -19 -9 -37
-8 -78 4 -82 23 -163 36 -166 26 -2 -5 -12 -9 -23 -9 -13 0 -19 7 -19 24 0 17
-9 27 -30 36 -37 16 -38 23 0 50 63 45 122 63 206 64 69 1 77 3 55 12 l-26 11
30 6 c32 6 175 56 238 84 39 17 35 33 -9 33 -13 0 -24 8 -27 20 -3 11 -1 20 4
20 5 0 9 9 9 20 0 15 7 20 30 20 32 0 80 -19 80 -32 0 -14 27 -9 33 6 4 10
-11 17 -56 26 -34 6 -73 15 -87 19 l-25 8 -3 194 c-2 107 0 312 3 457 l7 262
113 0 112 0 6 -202 c9 -251 8 -646 -1 -713 -6 -42 -10 -50 -27 -48 -18 2 -18
1 3 -9 14 -7 22 -20 22 -38 0 -24 -6 -29 -57 -43 -32 -10 -88 -23 -124 -31
-86 -19 -169 -52 -149 -60 87 -33 98 -35 162 -21 63 13 111 28 203 64 l50 19
1 159 c0 87 1 330 2 541 l2 382 23 1 c12 0 31 4 42 9 12 5 -18 7 -75 5 -55 -3
-80 -1 -60 3 l35 7 -40 10 c-22 6 -101 8 -175 5 -84 -3 -138 -1 -142 5 -5 6
-8 5 -8 -3 0 -8 -14 -13 -38 -14 -20 0 -206 -2 -412 -4 -206 -1 -446 -4 -533
-6 -87 -2 -160 0 -163 4 -3 4 -14 8 -25 8 -10 0 -19 5 -19 11 0 7 -18 9 -52 5
-85 -9 -426 -10 -510 -1 -76 7 -78 7 -78 -14 0 -15 -4 -20 -12 -15 -19 12 -98
22 -98 12 0 -12 -48 -10 -52 3 -2 6 -61 12 -158 15 -85 3 -174 6 -197 8 -41 3
-43 2 -43 -25z m1157 -16 c-20 -2 -52 -2 -70 0 -17 2 0 4 38 4 39 0 53 -2 32
-4z m-641 -24 c144 -1 160 -7 166 -58 3 -32 1 -34 -47 -48 -27 -8 -56 -20 -62
-25 -19 -15 -16 -99 8 -218 12 -58 22 -134 24 -170 1 -36 6 -77 10 -91 6 -25
1 -30 -77 -76 -118 -71 -143 -82 -216 -94 -36 -5 -69 -12 -74 -15 -4 -3 -8 7
-8 23 0 21 12 39 52 75 66 57 58 72 -11 22 -29 -20 -54 -34 -57 -31 -3 3 24
37 59 77 75 83 86 106 51 113 -13 2 -29 -2 -35 -9 -24 -29 -30 -13 -9 22 12
19 20 38 17 41 -7 7 -47 -57 -47 -76 0 -7 -10 -26 -22 -41 -13 -15 -29 -36
-35 -46 -11 -16 -12 -11 -11 36 1 30 -2 127 -7 216 -4 88 -4 208 0 267 l7 106
91 3 c51 2 95 2 98 1 4 -2 64 -3 135 -4z m1864 -435 l0 -447 -73 6 c-40 4 -89
13 -108 20 -19 8 -50 17 -69 20 l-35 6 33 -16 c17 -9 32 -20 32 -25 0 -4 9 -8
20 -8 39 0 19 -17 -35 -29 -66 -15 -79 -28 -22 -23 40 4 41 3 22 -12 -11 -8
-24 -16 -29 -16 -5 0 -14 -7 -20 -15 -6 -8 -40 -18 -76 -23 -36 -5 -58 -11
-50 -14 8 -3 54 -18 103 -33 48 -15 87 -31 87 -36 0 -12 -27 -11 -35 1 -4 6
-10 8 -14 5 -5 -2 -57 9 -116 25 -59 17 -135 35 -169 41 -33 5 -85 14 -114 19
-30 5 -71 20 -93 34 -21 14 -49 26 -61 27 -16 1 -11 4 15 11 27 7 37 15 35 27
-3 13 -15 15 -63 13 -33 -2 -79 0 -103 3 l-42 6 31 31 c20 21 29 38 25 50 -3
14 0 18 10 14 8 -3 14 1 14 9 0 14 24 20 58 16 6 -1 12 3 12 9 0 5 15 10 33
11 21 0 2 8 -53 20 -156 36 -163 38 -149 55 6 8 14 45 17 82 5 78 -7 97 -58
90 -16 -3 -30 -3 -30 0 0 2 20 41 45 87 35 64 47 99 55 156 5 41 13 84 16 97
5 16 2 22 -9 22 -9 0 -32 9 -51 21 -22 13 -43 18 -56 14 -21 -7 -28 10 -7 19
8 3 7 8 -5 16 -10 6 -18 20 -18 30 0 19 13 20 533 23 292 1 540 3 550 5 16 2
17 -25 17 -444z m-1352 181 c17 -9 37 -29 44 -45 7 -17 18 -30 25 -30 25 0 30
-102 8 -169 -6 -16 -5 -22 2 -18 10 6 33 -40 33 -65 0 -6 -20 -7 -50 -3 -27 4
-68 4 -90 0 -32 -5 -40 -11 -40 -28 0 -17 -2 -19 -9 -8 -5 7 -7 30 -5 50 2 20
6 101 9 181 2 80 5 146 5 148 1 7 41 0 68 -13z m-262 -156 c15 -16 19 -36 19
-86 0 -57 -2 -66 -19 -69 -48 -7 -76 40 -76 127 0 47 1 49 28 49 17 0 37 -9
48 -21z m552 -206 c-16 -33 -56 -50 -65 -27 -11 28 16 94 43 104 13 5 25 17
26 27 1 10 3 -3 5 -29 2 -27 -2 -60 -9 -75z m-990 67 c-11 -18 -28 -27 -28
-16 0 6 30 36 36 36 2 0 -1 -9 -8 -20z m457 -112 c-8 -39 -38 -68 -71 -68 -19
0 -24 5 -24 24 0 18 11 31 43 49 56 33 60 33 52 -5z m135 -43 c-10 -12 -10
-15 3 -15 18 0 33 -38 20 -50 -4 -4 -17 -11 -29 -14 -16 -5 -23 0 -32 19 -11
23 -9 29 13 50 26 27 45 34 25 10z m120 -3 c0 -7 5 -10 10 -7 6 4 10 -8 10
-29 0 -31 -3 -36 -24 -36 -14 0 -28 5 -31 11 -5 6 -11 4 -19 -6 -10 -14 -12
-13 -14 10 -1 14 4 28 12 31 8 3 12 13 9 22 -3 13 2 17 21 17 15 0 26 -6 26
-13z m108 -30 c2 -7 -6 -12 -17 -12 -21 0 -27 11 -14 24 9 9 26 2 31 -12z m12
-52 c0 -22 -7 -25 -29 -11 -16 10 -6 31 15 31 8 0 14 -9 14 -20z m-1080 -114
c0 -24 2 -59 5 -77 4 -25 3 -29 -3 -14 -16 34 -25 135 -13 135 6 0 11 -19 11
-44z m1037 38 c-3 -3 -12 -4 -19 -1 -8 3 -5 6 6 6 11 1 17 -2 13 -5z m-504
-11 c-7 -2 -19 -2 -25 0 -7 3 -2 5 12 5 14 0 19 -2 13 -5z m-406 -130 c-2 -16
-4 -3 -4 27 0 30 2 43 4 28 2 -16 2 -40 0 -55z m1248 -93 c4 -6 -7 -10 -24
-10 -17 0 -31 5 -31 10 0 6 11 10 24 10 14 0 28 -4 31 -10z m830 -15 c-47 -16
-103 -19 -89 -6 9 9 54 17 104 18 18 1 14 -3 -15 -12z m-325 -154 c0 -14 -55
-30 -71 -20 -10 6 -4 9 18 9 17 0 35 5 38 10 8 12 15 13 15 1z m44 -46 c7 -20
-30 -20 -64 0 -25 14 -25 14 16 15 28 0 44 -5 48 -15z m42 -40 c16 -8 22 -15
13 -15 -8 0 -24 7 -35 15 -25 19 -14 19 22 0z"/>
<path d="M209 4378 c-6 -20 -9 -94 -4 -107 5 -11 13 0 29 39 16 38 19 57 12
62 -10 7 -35 11 -37 6z"/>
<path d="M280 4080 c0 -5 6 -10 14 -10 8 0 18 5 21 10 3 6 -3 10 -14 10 -12 0
-21 -4 -21 -10z"/>
<path d="M1015 4070 c3 -5 8 -10 11 -10 2 0 4 5 4 10 0 6 -5 10 -11 10 -5 0
-7 -4 -4 -10z"/>
<path d="M1618 4873 c12 -2 32 -2 45 0 12 2 2 4 -23 4 -25 0 -35 -2 -22 -4z"/>
<path d="M528 4863 c7 -3 16 -2 19 1 4 3 -2 6 -13 5 -11 0 -14 -3 -6 -6z"/>
<path d="M2023 4853 c15 -2 39 -2 55 0 15 2 2 4 -28 4 -30 0 -43 -2 -27 -4z"/>
<path d="M7116 4831 c-4 -5 3 -7 14 -4 23 6 26 13 6 13 -8 0 -17 -4 -20 -9z"/>
<path d="M9435 4834 c-48 -12 -49 -17 -10 -30 l40 -12 -57 -1 c-33 -1 -58 3
-58 9 0 17 -20 11 -27 -7 -10 -29 -34 -52 -48 -46 -8 2 -11 11 -8 18 8 23 -6
37 -22 21 -8 -7 -30 -17 -51 -20 -41 -8 -68 -30 -78 -63 -6 -19 -11 -21 -26
-13 -26 14 -33 13 -26 -5 3 -8 -1 -21 -9 -29 -8 -8 -15 -19 -15 -25 0 -19 -31
-12 -52 12 -18 20 -19 20 -13 2 4 -11 11 -36 16 -55 l8 -35 -32 40 c-51 64
-96 111 -97 100 0 -6 10 -22 23 -35 32 -37 87 -117 87 -128 0 -6 -50 -10 -122
-11 -72 -1 -128 -6 -135 -13 -9 -8 -53 -9 -138 -5 -85 5 -126 3 -131 -4 -4 -8
-9 -7 -15 2 -7 11 -10 10 -15 -6 -4 -14 -51 -42 -147 -90 -133 -66 -142 -72
-154 -108 -13 -40 -8 -41 30 -8 27 23 288 148 293 140 8 -14 156 -20 571 -22
547 -4 614 3 657 65 51 73 -25 298 -115 340 -39 19 -95 28 -124 22z"/>
<path d="M10125 4810 c-3 -5 -1 -10 4 -10 6 0 11 5 11 10 0 6 -2 10 -4 10 -3
0 -8 -4 -11 -10z"/>
<path d="M8995 4750 c3 -5 16 -15 28 -21 22 -12 22 -12 3 10 -19 21 -43 30
-31 11z"/>
<path d="M7729 4726 c9 -10 9 -20 0 -40 l-12 -26 -20 23 c-18 20 -19 20 -13 2
4 -11 10 -33 13 -48 5 -27 5 -27 -21 -16 -14 7 -33 22 -41 35 -8 13 -25 29
-37 35 -19 9 -17 6 8 -22 38 -42 64 -80 64 -95 0 -7 -32 -13 -86 -17 -47 -3
-92 -11 -99 -17 -8 -7 -23 -9 -34 -5 -11 3 -74 -3 -138 -14 -65 -11 -136 -18
-158 -17 -58 5 -105 17 -105 27 0 5 -9 9 -20 9 -11 0 -20 -4 -20 -10 0 -5 -4
-10 -10 -10 -5 0 -7 6 -4 13 3 8 -3 13 -15 13 -18 0 -17 -4 10 -59 l30 -58
312 3 312 3 95 42 c92 41 95 44 92 73 -1 17 -9 41 -17 54 -8 12 -12 25 -9 29
8 8 -29 67 -56 90 -24 20 -37 23 -21 3z"/>
<path d="M7029 4643 c-13 -16 -12 -17 4 -4 9 7 17 15 17 17 0 8 -8 3 -21 -13z"/>
<path d="M6963 4585 c-3 -9 -3 -18 -1 -21 3 -3 8 4 11 16 6 23 -1 27 -10 5z"/>
<path d="M3512 4440 c-6 -17 -4 -28 8 -40 10 -10 20 -24 23 -31 4 -11 8 -11
23 3 16 16 17 19 3 30 -9 7 -23 24 -32 37 l-16 25 -9 -24z"/>
<path d="M10220 4449 c0 -5 5 -7 10 -4 6 3 10 8 10 11 0 2 -4 4 -10 4 -5 0
-10 -5 -10 -11z"/>
<path d="M6361 4418 c0 -13 3 -17 6 -10 2 6 9 10 14 7 5 -4 6 1 3 9 -9 24 -24
19 -23 -6z"/>
<path d="M6290 4381 c0 -5 5 -13 10 -16 6 -3 10 -2 10 4 0 5 -4 13 -10 16 -5
3 -10 2 -10 -4z"/>
<path d="M3600 4370 c0 -5 5 -10 11 -10 5 0 7 5 4 10 -3 6 -8 10 -11 10 -2 0
-4 -4 -4 -10z"/>
<path d="M3455 4360 c-3 -5 1 -10 10 -10 9 0 13 5 10 10 -3 6 -8 10 -10 10 -2
0 -7 -4 -10 -10z"/>
<path d="M6294 4328 c-3 -4 4 -8 15 -8 11 0 23 -4 26 -10 12 -19 26 -11 15 9
-10 19 -47 25 -56 9z"/>
<path d="M6583 4320 c-12 -28 -8 -39 8 -23 6 6 9 19 6 29 -3 17 -5 16 -14 -6z"/>
<path d="M3501 4314 c0 -11 3 -14 6 -6 3 7 2 16 -1 19 -3 4 -6 -2 -5 -13z"/>
<path d="M3870 4310 c0 -5 5 -10 10 -10 6 0 10 5 10 10 0 6 -4 10 -10 10 -5 0
-10 -4 -10 -10z"/>
<path d="M3580 4270 c0 -5 5 -10 10 -10 6 0 10 5 10 10 0 6 -4 10 -10 10 -5 0
-10 -4 -10 -10z"/>
<path d="M6636 4265 c-3 -9 0 -15 9 -15 8 0 15 7 15 15 0 8 -4 15 -9 15 -5 0
-11 -7 -15 -15z"/>
<path d="M6334 4231 c1 -39 1 -39 36 -34 44 7 64 23 28 23 -28 0 -53 23 -43
40 3 5 0 10 -8 10 -10 0 -14 -11 -13 -39z"/>
<path d="M7600 4259 c-51 -3 8 -6 145 -6 127 -1 255 2 285 6 66 8 -303 9 -430
0z"/>
<path d="M6696 4234 c-11 -28 -6 -39 9 -20 8 11 15 23 15 28 0 14 -18 9 -24
-8z"/>
<path d="M3530 4220 c0 -5 5 -10 11 -10 5 0 7 5 4 10 -3 6 -8 10 -11 10 -2 0
-4 -4 -4 -10z"/>
<path d="M3760 4221 c0 -5 -3 -16 -6 -25 -5 -12 0 -16 19 -16 20 0 24 4 19 25
-4 23 -32 37 -32 16z"/>
<path d="M4050 4160 c9 -17 10 -25 1 -28 -16 -5 -14 -22 4 -22 21 0 19 44 -2
61 -15 13 -15 12 -3 -11z"/>
<path d="M6356 4165 c-3 -8 -1 -15 4 -15 6 0 10 7 10 15 0 8 -2 15 -4 15 -2 0
-6 -7 -10 -15z"/>
<path d="M6436 4165 c4 -8 10 -15 15 -15 4 0 6 7 3 15 -4 8 -10 15 -15 15 -4
0 -6 -7 -3 -15z"/>
<path d="M4022 4145 c0 -16 2 -22 5 -12 2 9 2 23 0 30 -3 6 -5 -1 -5 -18z"/>
<path d="M5758 4160 c6 -8 12 -28 11 -44 0 -25 -2 -27 -8 -12 -7 18 -8 18 -14
-5 -10 -37 -8 -79 3 -79 20 0 -10 -40 -51 -67 l-39 -26 2 -411 3 -411 94 1
c92 2 95 3 115 30 11 16 45 55 74 86 l53 56 -2 170 -3 170 -45 -51 c-26 -28
-52 -57 -60 -66 -11 -14 -11 -13 0 6 8 11 36 46 63 77 l48 56 -5 208 c-5 203
-6 207 -27 210 -12 2 -30 -4 -39 -12 -14 -13 -24 -14 -45 -7 -19 8 -26 7 -26
-1 0 -9 -3 -9 -11 -1 -16 16 -5 41 20 45 19 3 20 4 4 36 -9 18 -18 30 -21 28
-2 -3 -11 1 -19 9 -17 18 -53 20 -53 4 0 -8 -6 -7 -17 2 -15 11 -16 11 -5 -1z
m32 -106 c0 -8 -4 -14 -10 -14 -5 0 -10 9 -10 21 0 11 5 17 10 14 6 -3 10 -13
10 -21z m175 -26 c-22 -32 -129 -101 -134 -87 -2 7 3 16 11 20 9 5 39 27 69
49 60 45 78 51 54 18z"/>
<path d="M6802 4104 c-16 -11 -22 -25 -22 -54 0 -21 5 -42 11 -46 8 -5 10 1 7
19 -3 15 -1 24 3 21 5 -3 9 -14 9 -25 0 -10 5 -19 11 -19 5 0 8 3 5 8 -2 4 2
18 10 32 13 25 13 25 14 3 0 -13 -9 -32 -20 -43 -19 -19 -19 -20 0 -30 15 -8
26 -4 55 21 42 37 44 63 8 101 -30 32 -58 35 -91 12z"/>
<path d="M10095 4085 c-71 -19 -211 -55 -310 -80 -304 -76 -783 -226 -1005
-315 -80 -32 -167 -66 -195 -75 -147 -50 -458 -193 -590 -273 -49 -30 -117
-71 -150 -90 -213 -127 -510 -405 -582 -545 -20 -41 -15 -36 43 43 70 97 266
287 371 360 136 96 303 195 428 254 61 29 148 71 195 94 92 43 235 104 315
133 28 10 104 39 170 64 330 129 649 229 1077 339 276 71 371 100 376 114 5
16 6 16 -143 -23z"/>
<path d="M3448 3922 c-16 -2 -28 -8 -28 -13 0 -6 -4 -7 -10 -4 -5 3 -10 -4
-10 -16 0 -16 5 -20 19 -16 12 3 22 -1 25 -10 3 -8 2 -12 -2 -9 -4 2 -16 -2
-27 -10 -15 -11 -16 -17 -7 -26 23 -23 66 11 73 57 8 46 4 52 -33 47z"/>
<path d="M4226 3821 c-3 -4 6 -6 19 -3 14 2 25 6 25 8 0 8 -39 4 -44 -5z"/>
<path d="M10231 3794 c0 -11 3 -14 6 -6 3 7 2 16 -1 19 -3 4 -6 -2 -5 -13z"/>
<path d="M8418 3793 c6 -2 18 -2 25 0 6 3 1 5 -13 5 -14 0 -19 -2 -12 -5z"/>
<path d="M9960 3730 c0 -5 5 -10 11 -10 5 0 7 5 4 10 -3 6 -8 10 -11 10 -2 0
-4 -4 -4 -10z"/>
<path d="M9852 3710 c0 -14 2 -19 5 -12 2 6 2 18 0 25 -3 6 -5 1 -5 -13z"/>
<path d="M4094 3679 c-3 -6 -3 -13 0 -16 3 -4 6 -1 6 7 0 10 3 10 15 0 9 -7
17 -11 20 -9 2 3 -4 10 -15 17 -13 8 -21 8 -26 1z"/>
<path d="M9890 3533 c0 -13 5 -23 10 -23 13 0 13 11 0 30 -8 12 -10 11 -10 -7z"/>
<path d="M1050 3374 c-91 -29 -244 -75 -340 -104 -96 -28 -197 -60 -225 -70
-27 -11 -75 -26 -105 -33 -44 -12 -273 -77 -362 -103 -17 -5 -18 -46 -18 -674
0 -525 3 -669 13 -673 9 -4 9 -6 0 -6 -9 -1 -13 -21 -13 -66 l0 -65 22 14 c31
20 315 140 713 301 127 51 345 143 485 205 140 62 265 114 278 117 13 3 22 13
22 24 0 10 -44 196 -98 411 -54 216 -118 473 -142 571 -24 98 -48 184 -54 191
-9 11 -43 3 -176 -40z m160 -23 c5 -17 7 -31 5 -31 -9 0 -34 58 -28 64 9 8 12
3 23 -33z m-224 -41 c-112 -32 -162 -43 -153 -34 8 9 208 63 232 62 11 0 -25
-12 -79 -28z m207 -37 c20 -64 92 -369 146 -618 11 -49 29 -132 40 -183 25
-113 25 -112 4 -112 -10 0 -31 -7 -47 -15 -15 -8 -37 -15 -47 -15 -10 0 -34
-8 -54 -17 -29 -14 -40 -15 -56 -5 -19 12 -24 6 -20 -20 0 -5 -4 -8 -9 -8 -6
0 -10 6 -10 14 0 15 -21 26 -51 26 -33 0 -78 29 -85 54 -7 31 -24 37 -63 26
-19 -5 -31 -5 -31 1 0 5 -9 9 -21 9 -15 0 -19 5 -15 15 3 9 0 15 -9 15 -17 0
-30 -20 -27 -41 2 -10 -6 -19 -18 -22 -21 -5 -28 8 -7 16 6 2 9 7 6 11 -3 4
-18 2 -33 -4 -47 -17 -104 -12 -125 11 -28 31 -33 36 -65 64 -34 29 -39 30
-56 9 -21 -24 -51 -37 -118 -50 -52 -10 -65 -9 -77 2 -7 8 -18 14 -24 14 -18
0 -12 19 8 30 11 5 32 10 48 10 26 1 27 1 9 15 -12 9 -17 22 -14 39 3 15 0 27
-8 30 -20 8 -17 34 3 39 12 3 8 7 -14 12 -18 4 -30 11 -27 16 3 5 -11 25 -30
45 -20 21 -36 42 -36 48 0 6 -9 22 -19 35 -15 20 -17 30 -8 58 9 28 8 36 -4
44 -10 6 -10 9 -1 9 6 0 12 9 12 20 0 11 5 20 10 20 6 0 10 17 10 38 0 20 4
42 8 48 4 6 49 25 100 43 51 19 91 35 89 38 -9 8 -197 -62 -197 -74 0 -7 -4
-13 -9 -13 -5 0 -7 8 -4 18 3 14 45 31 171 71 92 29 237 75 322 103 214 70
402 126 422 127 11 1 21 -14 31 -46z m77 -129 c17 -65 30 -125 29 -134 -1 -14
-68 234 -69 254 -1 29 14 -15 40 -120z m-1060 -129 c-19 -7 -44 -13 -55 -13
-11 0 -2 5 20 13 53 17 80 17 35 0z m1118 -125 l0 -25 -8 25 c-4 14 -8 36 -8
50 l0 25 8 -25 c4 -14 8 -36 8 -50z m69 -292 c-3 -8 -6 -5 -6 6 -1 11 2 17 5
13 3 -3 4 -12 1 -19z m10 -40 c-3 -8 -6 -5 -6 6 -1 11 2 17 5 13 3 -3 4 -12 1
-19z m70 -260 c-3 -8 -6 -5 -6 6 -1 11 2 17 5 13 3 -3 4 -12 1 -19z m-39 -10
c-2 -6 -56 -34 -119 -61 -132 -57 -452 -178 -456 -173 -2 2 94 42 214 90 120
48 247 102 283 121 71 37 84 41 78 23z m-388 -28 c0 -13 -7 -20 -18 -20 -24 0
-32 8 -25 26 8 22 43 17 43 -6z m-230 -230 c-22 -14 -122 -51 -126 -47 -4 4
114 55 131 56 6 0 3 -4 -5 -9z m-226 -94 c-50 -22 -82 -27 -39 -7 22 11 47 20
55 20 8 0 1 -6 -16 -13z m-144 -56 c-8 -5 -19 -10 -25 -10 -5 0 -3 5 5 10 8 5
20 10 25 10 6 0 3 -5 -5 -10z m-50 -20 c-8 -5 -19 -10 -25 -10 -5 0 -3 5 5 10
8 5 20 10 25 10 6 0 3 -5 -5 -10z m-50 -19 c-8 -5 -26 -11 -40 -15 -21 -5 -20
-3 5 9 32 15 60 20 35 6z m-71 -25 c-10 -10 -241 -97 -246 -93 -2 3 17 13 44
23 26 9 80 30 118 45 66 27 94 34 84 25z"/>
<path d="M390 2465 c-7 -9 -8 -15 -2 -15 5 0 12 7 16 15 3 8 4 15 2 15 -2 0
-9 -7 -16 -15z"/>
<path d="M1300 2432 c-43 -4 -60 -18 -60 -48 0 -19 5 -24 24 -24 13 0 31 -3
40 -6 12 -5 16 0 16 19 0 14 5 27 11 29 6 2 10 10 8 18 -3 11 -15 14 -39 12z"/>
<path d="M1360 2415 c0 -8 5 -15 10 -15 6 0 10 7 10 15 0 8 -4 15 -10 15 -5 0
-10 -7 -10 -15z"/>
<path d="M1115 2361 c-9 -16 30 -31 61 -22 25 6 26 8 9 15 -35 14 -64 16 -70
7z"/>
<path d="M9200 3423 c-30 -5 -137 -36 -242 -70 -89 -28 -110 -49 -128 -124 -7
-28 -17 -52 -24 -54 -6 -2 -125 -35 -265 -74 -140 -39 -262 -78 -272 -87 -17
-15 -17 -51 -14 -552 l4 -537 28 -22 c15 -13 61 -39 102 -59 65 -32 81 -36
123 -31 44 6 237 64 998 303 129 41 256 84 283 96 l47 21 0 186 c-1 102 -5
233 -10 291 -9 108 -6 120 34 133 13 4 11 56 -8 316 -19 256 -6 244 -196 181
-80 -27 -262 -81 -405 -120 -261 -72 -382 -107 -616 -180 -70 -22 -138 -40
-152 -40 -28 0 -46 18 -25 24 7 3 56 17 108 32 52 15 156 45 230 66 74 22 185
52 245 68 200 52 712 204 722 214 2 2 -10 6 -26 9 -31 7 -384 -75 -406 -93
-15 -13 -25 -2 -25 26 0 27 -37 71 -65 77 -11 2 -31 2 -45 0z m43 -20 c-7 -2
-19 -2 -25 0 -7 3 -2 5 12 5 14 0 19 -2 13 -5z m-19 -69 c11 -30 6 -51 -16
-62 -23 -11 -242 -62 -265 -62 -20 0 -15 48 5 59 21 11 241 80 258 81 7 0 15
-7 18 -16z m-494 -214 c-34 -11 -60 -11 -35 0 11 5 29 8 40 8 16 0 15 -2 -5
-8z m-67 -17 c-7 -2 -19 -2 -25 0 -7 3 -2 5 12 5 14 0 19 -2 13 -5z m-112 -29
c-41 -13 -76 -22 -79 -20 -5 6 117 45 138 45 8 -1 -18 -12 -59 -25z m-126 -44
c-3 -5 -23 -9 -43 -9 l-37 2 35 7 c52 11 52 11 45 0z m82 -312 c-2 -13 -4 -5
-4 17 -1 22 1 32 4 23 2 -10 2 -28 0 -40z m853 -37 c5 -11 11 -63 13 -115 1
-74 -1 -98 -13 -109 -16 -15 -189 -77 -214 -77 -16 0 -31 63 -40 172 l-5 66
32 12 c52 20 201 69 209 70 4 0 12 -9 18 -19z m-843 -38 c-3 -10 -5 -2 -5 17
0 19 2 27 5 18 2 -10 2 -26 0 -35z m568 -73 c-3 -5 -14 -10 -23 -9 -14 0 -13
2 3 9 27 11 27 11 20 0z m-168 -56 c-3 -3 -12 -4 -19 -1 -8 3 -5 6 6 6 11 1
17 -2 13 -5z m-372 -24 c10 -11 16 -20 13 -20 -3 0 -13 9 -23 20 -10 11 -16
20 -13 20 3 0 13 -9 23 -20z m270 -1 c-38 -10 -77 -18 -85 -18 -21 1 110 37
135 37 11 0 -11 -8 -50 -19z m-125 -30 c-33 -9 -92 -10 -106 -1 -7 4 20 7 60
8 45 1 62 -2 46 -7z"/>
<path d="M9240 2560 c-9 -6 -10 -10 -3 -10 6 0 15 5 18 10 8 12 4 12 -15 0z"/>
<path d="M2360 3401 c0 -5 9 -7 20 -4 11 3 20 7 20 9 0 2 -9 4 -20 4 -11 0
-20 -4 -20 -9z"/>
<path d="M10130 3386 c0 -2 7 -7 16 -10 8 -3 12 -2 9 4 -6 10 -25 14 -25 6z"/>
<path d="M3110 3351 c0 -5 9 -7 20 -4 11 3 20 7 20 9 0 2 -9 4 -20 4 -11 0
-20 -4 -20 -9z"/>
<path d="M10136 3274 c-4 -9 -4 -19 -1 -22 2 -3 7 3 11 12 4 9 4 19 1 22 -2 3
-7 -3 -11 -12z"/>
<path d="M1550 3121 c-6 -12 -8 -27 -4 -33 5 -8 11 -1 16 17 9 36 3 44 -12 16z"/>
<path d="M10097 3083 c-7 -43 4 -69 14 -33 10 36 10 70 0 70 -4 0 -11 -16 -14
-37z"/>
<path d="M2163 2963 c9 -2 23 -2 30 0 6 3 -1 5 -18 5 -16 0 -22 -2 -12 -5z"/>
<path d="M2098 2953 c6 -2 18 -2 25 0 6 3 1 5 -13 5 -14 0 -19 -2 -12 -5z"/>
<path d="M2123 2932 c-7 -8 -20 -11 -28 -8 -8 3 -15 1 -15 -3 0 -5 -9 -7 -20
-4 -11 3 -20 0 -20 -6 0 -6 -3 -10 -7 -10 -5 1 -24 0 -43 -1 -32 -2 -33 -3
-10 -9 24 -7 24 -7 -9 -14 -19 -4 -32 -9 -29 -12 8 -8 262 61 265 72 6 16 -67
12 -84 -5z"/>
<path d="M3621 2914 c0 -11 3 -14 6 -6 3 7 2 16 -1 19 -3 4 -6 -2 -5 -13z"/>
<path d="M1876 2876 c7 -18 -9 -21 -37 -6 -15 8 -19 7 -19 -4 0 -8 6 -16 13
-19 6 -2 0 -4 -16 -3 -18 1 -26 5 -22 14 3 10 -1 11 -18 7 -33 -11 -42 -22
-28 -38 10 -12 22 -12 87 3 41 10 78 21 82 25 4 4 -3 4 -15 1 -18 -6 -22 -4
-17 7 3 8 1 18 -5 22 -7 3 -8 0 -5 -9z"/>
<path d="M3652 2854 c10 -10 20 -16 22 -13 3 3 -5 11 -17 18 -21 13 -21 12 -5
-5z"/>
<path d="M6498 2853 c7 -3 16 -2 19 1 4 3 -2 6 -13 5 -11 0 -14 -3 -6 -6z"/>
<path d="M2220 2805 c-25 -8 -104 -32 -175 -53 -149 -45 -205 -67 -205 -80 0
-5 37 4 83 20 74 27 146 49 305 94 28 8 52 19 52 24 0 12 -3 12 -60 -5z"/>
<path d="M10176 2791 c-4 -5 -2 -20 3 -33 6 -12 10 -17 10 -10 1 7 6 10 11 7
6 -3 10 1 10 9 0 9 -7 16 -16 16 -8 0 -12 5 -9 10 3 6 4 10 1 10 -3 0 -7 -4
-10 -9z"/>
<path d="M5653 2735 c0 -27 2 -38 4 -22 2 15 2 37 0 50 -2 12 -4 0 -4 -28z"/>
<path d="M3768 2743 c6 -2 18 -2 25 0 6 3 1 5 -13 5 -14 0 -19 -2 -12 -5z"/>
<path d="M6408 2743 c6 -2 18 -2 25 0 6 3 1 5 -13 5 -14 0 -19 -2 -12 -5z"/>
<path d="M2043 2683 c-40 -15 -71 -28 -69 -30 4 -5 156 47 156 53 0 7 -14 3
-87 -23z"/>
<path d="M5663 2600 c0 -36 2 -50 4 -32 2 17 2 47 0 65 -2 17 -4 3 -4 -33z"/>
<path d="M10170 2586 c0 -2 7 -6 15 -10 8 -3 15 -1 15 4 0 6 -7 10 -15 10 -8
0 -15 -2 -15 -4z"/>
<path d="M2480 2500 c0 -5 5 -10 10 -10 6 0 10 5 10 10 0 6 -4 10 -10 10 -5 0
-10 -4 -10 -10z"/>
<path d="M9996 2497 c3 -10 9 -15 12 -12 3 3 0 11 -7 18 -10 9 -11 8 -5 -6z"/>
<path d="M2443 2490 c-13 -5 -23 -11 -23 -14 0 -7 40 6 46 15 6 10 6 10 -23
-1z"/>
<path d="M2390 2470 c-9 -6 -10 -10 -3 -10 6 0 15 5 18 10 8 12 4 12 -15 0z"/>
<path d="M2310 2440 c-38 -13 -44 -17 -20 -13 41 7 80 20 80 28 0 3 -1 5 -2 4
-2 0 -28 -9 -58 -19z"/>
<path d="M5674 2335 c0 -49 1 -71 3 -48 2 23 2 64 0 90 -2 26 -3 8 -3 -42z"/>
<path d="M2070 2370 l-55 -19 44 6 c25 4 56 12 70 20 36 18 7 15 -59 -7z"/>
<path d="M1958 2333 c7 -3 16 -2 19 1 4 3 -2 6 -13 5 -11 0 -14 -3 -6 -6z"/>
<path d="M5334 2179 c0 -11 6 -19 13 -19 7 0 13 6 13 14 0 8 -6 16 -13 19 -8
3 -13 -3 -13 -14z"/>
<path d="M6220 2191 c0 -5 9 -11 20 -14 11 -3 20 0 20 6 0 8 3 7 9 -1 7 -11 9
-11 14 2 5 13 -1 16 -28 16 -19 0 -35 -4 -35 -9z"/>
<path d="M3958 2183 c7 -3 16 -2 19 1 4 3 -2 6 -13 5 -11 0 -14 -3 -6 -6z"/>
<path d="M1458 2079 c-54 -27 -128 -60 -165 -74 -36 -14 -71 -29 -77 -34 -6
-5 -29 -14 -51 -20 -50 -14 -75 -30 -57 -38 6 -2 12 -9 12 -14 0 -6 -8 -5 -20
1 -27 14 -95 -13 -86 -35 3 -8 1 -15 -4 -15 -6 0 -10 5 -10 10 0 18 -22 11
-119 -36 l-95 -47 23 -18 c16 -13 19 -19 8 -19 -8 0 -20 7 -27 15 -14 17 -46
20 -55 6 -3 -5 -22 -15 -43 -21 -20 -6 -58 -21 -84 -32 -40 -18 -46 -24 -37
-39 9 -17 7 -18 -16 -7 -21 9 -32 8 -61 -5 -19 -9 -42 -17 -52 -17 -9 0 -42
-12 -72 -27 -30 -14 -60 -25 -66 -24 -6 1 -40 -12 -75 -29 -35 -16 -70 -30
-78 -30 -23 0 -2 -14 37 -26 30 -8 42 -7 62 5 l25 16 -17 -26 c-16 -25 -16
-27 6 -39 16 -8 38 -10 67 -5 40 7 42 6 26 -10 -22 -21 -16 -31 28 -45 29 -10
46 -9 93 6 31 9 62 21 69 27 7 5 17 6 23 2 7 -4 -12 -18 -44 -33 -38 -17 -56
-31 -56 -43 0 -40 44 -32 255 47 11 4 17 4 13 0 -4 -5 -49 -25 -100 -45 -51
-21 -92 -42 -91 -47 1 -5 18 -18 39 -28 l37 -19 71 35 c39 20 94 46 121 58 28
12 73 32 100 45 28 12 93 42 145 65 160 71 481 221 554 257 l70 35 -25 19
c-29 22 -46 23 -79 4 -30 -17 -40 -18 -40 -5 0 6 4 10 10 10 9 0 100 41 130
59 21 13 116 55 208 93 81 33 106 48 81 48 -8 0 -53 16 -99 36 -140 60 -263
104 -290 103 -14 0 -69 -22 -122 -50z m167 21 c3 -5 -1 -10 -9 -10 -9 0 -16 5
-16 10 0 6 4 10 9 10 6 0 13 -4 16 -10z m-45 -14 c0 -2 -7 -6 -15 -10 -8 -3
-15 -1 -15 4 0 6 7 10 15 10 8 0 15 -2 15 -4z m-43 -22 c-3 -3 -12 -4 -19 -1
-8 3 -5 6 6 6 11 1 17 -2 13 -5z m110 0 c-3 -3 -12 -4 -19 -1 -8 3 -5 6 6 6
11 1 17 -2 13 -5z m113 -8 c0 -7 -88 -54 -125 -66 -19 -6 -41 -10 -48 -7 -6 2
13 11 43 21 30 9 71 25 90 36 39 21 40 22 40 16z m-245 -23 c18 -14 18 -15 2
-9 -10 3 -27 6 -38 6 -10 0 -19 5 -19 10 0 15 33 11 55 -7z m325 -6 c0 -2 -17
-19 -37 -38 l-38 -34 34 38 c33 34 41 42 41 34z m30 -16 c0 -5 -10 -11 -22
-14 -22 -6 -22 -6 -4 8 23 17 26 18 26 6z m-393 -17 c-3 -3 -12 -4 -19 -1 -8
3 -5 6 6 6 11 1 17 -2 13 -5z m-142 -24 c3 -5 2 -10 -4 -10 -5 0 -13 5 -16 10
-3 6 -2 10 4 10 5 0 13 -4 16 -10z m219 -14 c-10 -8 -21 -11 -24 -6 -3 4 -14
10 -25 13 -11 2 0 5 24 6 41 1 43 0 25 -13z m176 9 c0 -6 -56 -35 -67 -35 -4
0 6 9 22 20 29 19 45 25 45 15z m20 -20 c0 -2 -10 -9 -22 -15 -22 -11 -22 -10
-4 4 21 17 26 19 26 11z m-465 -25 c3 -5 -1 -10 -9 -10 -9 0 -16 5 -16 10 0 6
4 10 9 10 6 0 13 -4 16 -10z m65 -5 c7 -9 8 -15 2 -15 -5 0 -12 7 -16 15 -3 8
-4 15 -2 15 2 0 9 -7 16 -15z m90 11 c0 -3 -4 -8 -10 -11 -5 -3 -10 -1 -10 4
0 6 5 11 10 11 6 0 10 -2 10 -4z m50 -11 c-7 -9 -15 -13 -17 -11 -7 7 7 26 19
26 6 0 6 -6 -2 -15z m107 -1 c-3 -3 -12 -4 -19 -1 -8 3 -5 6 6 6 11 1 17 -2
13 -5z m98 -4 c-3 -5 -12 -10 -18 -10 -7 0 -6 4 3 10 19 12 23 12 15 0z m-470
-10 c3 -5 -1 -10 -9 -10 -9 0 -16 5 -16 10 0 6 4 10 9 10 6 0 13 -4 16 -10z
m215 -10 c0 -5 -5 -10 -11 -10 -5 0 -7 5 -4 10 3 6 8 10 11 10 2 0 4 -4 4 -10z
m120 5 c0 -2 -10 -10 -22 -16 -21 -11 -22 -11 -9 4 13 16 31 23 31 12z m95 -5
c3 -5 -3 -10 -13 -10 -11 0 -25 -7 -32 -15 -7 -9 -15 -13 -18 -10 -5 5 38 44
50 45 4 0 10 -4 13 -10z m-350 -20 c3 -5 -1 -10 -10 -10 -9 0 -13 5 -10 10 3
6 8 10 10 10 2 0 7 -4 10 -10z m-138 -6 c-3 -3 -12 -4 -19 -1 -8 3 -5 6 6 6
11 1 17 -2 13 -5z m213 -4 c0 -5 -7 -10 -15 -10 -8 0 -15 5 -15 10 0 6 7 10
15 10 8 0 15 -4 15 -10z m-284 -23 c-17 -6 -25 -14 -22 -23 3 -8 -1 -14 -9
-14 -27 0 -15 27 20 46 11 7 24 9 30 6 5 -3 -3 -10 -19 -15z m479 4 c-6 -5
-21 -12 -34 -16 -21 -6 -22 -5 -10 8 8 9 23 16 34 17 11 0 15 -3 10 -9z m-375
-11 c0 -5 -4 -10 -9 -10 -6 0 -13 5 -16 10 -3 6 1 10 9 10 9 0 16 -4 16 -10z
m260 6 c0 -3 -4 -8 -10 -11 -5 -3 -10 -1 -10 4 0 6 5 11 10 11 6 0 10 -2 10
-4z m-430 -38 c0 -12 -24 -10 -38 4 -20 20 -13 28 13 16 14 -6 25 -15 25 -20z
m290 22 c0 -5 -9 -10 -20 -10 -11 0 -20 5 -20 10 0 6 9 10 20 10 11 0 20 -4
20 -10z m80 -10 c0 -5 -8 -10 -17 -10 -15 0 -16 2 -3 10 19 12 20 12 20 0z
m-257 -7 c-7 -2 -19 -2 -25 0 -7 3 -2 5 12 5 14 0 19 -2 13 -5z m107 -8 c0 -1
-9 -5 -20 -8 -12 -3 -20 0 -20 8 0 8 8 11 20 8 11 -3 20 -7 20 -8z m230 5
c-19 -13 -30 -13 -30 0 0 6 10 10 23 10 18 0 19 -2 7 -10z m-541 -24 c20 -15
28 -27 21 -31 -11 -7 -60 31 -60 47 0 12 3 11 39 -16z m248 -2 c-3 -3 -12 -4
-19 -1 -8 3 -5 6 6 6 11 1 17 -2 13 -5z m338 -4 c-7 -12 -148 -80 -153 -75 -3
3 144 83 156 85 2 0 0 -5 -3 -10z m-385 -10 c0 -5 -5 -10 -11 -10 -5 0 -7 5
-4 10 3 6 8 10 11 10 2 0 4 -4 4 -10z m153 3 c-7 -2 -19 -2 -25 0 -7 3 -2 5
12 5 14 0 19 -2 13 -5z m114 1 c-3 -3 -12 -4 -19 -1 -8 3 -5 6 6 6 11 1 17 -2
13 -5z m-307 -21 c0 -11 -81 -43 -107 -43 -16 0 -21 -4 -16 -16 4 -10 1 -15
-8 -13 -8 1 -21 0 -29 -4 -8 -3 -28 -8 -44 -12 -15 -3 -30 -14 -33 -25 -5 -17
-6 -17 -24 -2 -25 22 -24 35 1 27 12 -4 31 0 44 8 12 8 33 17 47 19 13 2 23 9
22 16 -2 7 7 12 20 12 12 0 45 9 72 20 60 23 55 22 55 13z m-198 -25 c-9 -9
-15 -9 -24 0 -9 9 -7 12 12 12 19 0 21 -3 12 -12z m313 2 c-11 -5 -27 -9 -35
-9 -13 -1 -13 0 0 9 8 5 24 9 35 9 l20 0 -20 -9z m-375 -10 c0 -5 -7 -10 -15
-10 -8 0 -15 5 -15 10 0 6 7 10 15 10 8 0 15 -4 15 -10z m445 0 c3 -5 -3 -10
-14 -10 -12 0 -21 5 -21 10 0 6 6 10 14 10 8 0 18 -4 21 -10z m-485 -20 c0 -5
-2 -10 -4 -10 -3 0 -8 5 -11 10 -3 6 -1 10 4 10 6 0 11 -4 11 -10z m-73 -25
c-14 -14 -47 -8 -47 9 0 8 11 11 29 8 23 -3 27 -7 18 -17z m633 20 c0 -6 -209
-105 -280 -133 -30 -11 -76 -29 -102 -39 -25 -10 -44 -21 -42 -25 3 -4 -12
-10 -33 -14 -21 -3 -60 -17 -86 -30 -56 -28 -71 -31 -39 -8 19 13 21 18 10 32
-12 14 -10 14 10 3 15 -8 28 -9 41 -1 11 5 28 10 38 10 10 0 25 5 33 10 12 8
11 13 -8 33 -12 13 -22 27 -22 33 1 5 12 -4 25 -20 l24 -30 48 22 c26 11 59
24 73 28 14 3 52 19 85 34 33 15 89 40 125 55 36 16 69 32 75 37 10 9 25 11
25 3z m-180 -26 c0 -14 -16 -11 -29 5 -10 12 -8 13 8 9 12 -3 21 -9 21 -14z
m-53 5 c-3 -3 -12 -4 -19 -1 -8 3 -5 6 6 6 11 1 17 -2 13 -5z m-483 -13 c9
-15 -53 -36 -67 -22 -8 8 -6 11 10 11 12 0 25 5 28 10 8 12 22 13 29 1z m406
-10 c0 -12 -20 -25 -27 -18 -7 7 6 27 18 27 5 0 9 -4 9 -9z m55 -11 c16 -18
16 -20 2 -20 -10 0 -17 6 -17 14 0 8 -6 17 -12 19 -8 3 -8 6 -2 6 6 1 19 -8
29 -19z m-590 -15 c22 -8 31 -14 20 -14 -11 0 -31 6 -45 14 -32 18 -25 18 25
0z m288 4 c-5 -5 -23 -12 -41 -15 -24 -5 -32 -3 -32 7 0 9 14 15 41 16 24 0
37 -3 32 -8z m-150 -39 c9 0 19 5 22 10 3 6 16 10 28 10 20 0 20 0 1 -15 -10
-8 -29 -15 -41 -15 -14 0 -23 -6 -23 -15 0 -8 -5 -15 -11 -15 -6 0 -9 6 -6 14
3 8 -1 20 -9 26 -8 7 -14 17 -14 23 0 5 8 3 18 -6 10 -10 26 -17 35 -17z m332
20 c-28 -12 -67 -12 -60 0 3 6 23 10 43 9 30 0 33 -2 17 -9z m-542 -7 c-7 -2
-19 -2 -25 0 -7 3 -2 5 12 5 14 0 19 -2 13 -5z m617 3 c0 -11 -19 -15 -25 -6
-3 5 1 10 9 10 9 0 16 -2 16 -4z m-550 -16 c12 -8 11 -10 -7 -10 -13 0 -23 5
-23 10 0 13 11 13 30 0z m390 0 c-19 -13 -30 -13 -30 0 0 6 10 10 23 10 18 0
19 -2 7 -10z m-70 -10 c12 -8 11 -10 -7 -10 -13 0 -23 5 -23 10 0 13 11 13 30
0z m-390 -10 c0 -5 -12 -10 -27 -10 -22 0 -25 2 -13 10 20 13 40 13 40 0z
m340 -10 c0 -5 -2 -10 -4 -10 -3 0 -8 5 -11 10 -3 6 -1 10 4 10 6 0 11 -4 11
-10z m-185 -21 c-30 -11 -42 -10 -48 4 -3 9 5 12 32 8 30 -3 32 -5 16 -12z
m-222 4 c-7 -2 -19 -2 -25 0 -7 3 -2 5 12 5 14 0 19 -2 13 -5z m482 -3 c-3 -5
-18 -10 -33 -10 -21 0 -24 2 -12 10 20 13 53 13 45 0z m-341 -26 c5 -12 2 -15
-10 -10 -8 3 -20 6 -25 6 -5 0 -9 5 -9 10 0 16 37 11 44 -6z m266 -6 c0 -13
-23 -5 -28 10 -2 7 2 10 12 6 9 -3 16 -11 16 -16z m-110 -9 c0 -6 -4 -7 -10
-4 -5 3 -10 11 -10 16 0 6 5 7 10 4 6 -3 10 -11 10 -16z m-230 3 c0 -4 -15
-13 -32 -20 l-33 -12 25 20 c27 21 40 25 40 12z m276 -21 c-3 -4 -18 -11 -33
-14 -16 -3 -36 -9 -45 -12 -11 -4 -18 -3 -18 4 0 6 10 11 23 11 12 0 29 5 37
10 19 12 43 13 36 1z m-106 -32 c0 -5 -4 -9 -10 -9 -5 0 -10 7 -10 16 0 8 5
12 10 9 6 -3 10 -10 10 -16z m245 -29 c3 -5 1 -10 -4 -10 -6 0 -11 5 -11 10 0
6 2 10 4 10 3 0 8 -4 11 -10z"/>
<path d="M10035 2121 c-4 -7 4 -11 19 -11 24 0 31 -10 26 -35 -1 -5 4 -5 10 1
20 20 7 49 -22 52 -14 2 -29 -2 -33 -7z"/>
<path d="M3993 2040 c0 -25 2 -35 4 -22 2 12 2 32 0 45 -2 12 -4 2 -4 -23z"/>
<path d="M9955 2050 c3 -5 8 -10 11 -10 2 0 4 5 4 10 0 6 -5 10 -11 10 -5 0
-7 -4 -4 -10z"/>
<path d="M3897 2027 c-11 -28 3 -69 20 -63 8 3 24 7 36 7 16 1 14 3 -8 8 -23
5 -31 13 -35 36 -5 25 -7 27 -13 12z"/>
<path d="M9927 2033 c-4 -3 -7 -11 -7 -17 0 -6 5 -5 12 2 6 6 9 14 7 17 -3 3
-9 2 -12 -2z"/>
<path d="M1920 1941 c-36 -15 -99 -43 -140 -63 -41 -20 -90 -42 -108 -49 l-33
-12 22 -23 c13 -13 28 -24 34 -24 6 0 49 18 94 40 46 23 128 59 183 82 54 22
101 45 104 49 6 11 -39 29 -69 28 -12 -1 -51 -13 -87 -28z"/>
<path d="M9683 1898 l-42 -9 13 -32 c17 -41 29 -157 17 -157 -5 0 -17 7 -25
16 -13 12 -16 12 -16 2 0 -8 4 -18 9 -23 8 -8 16 -273 12 -356 -1 -12 -9 -15
-28 -12 -25 3 -26 2 -8 -7 24 -12 -46 -5 -109 11 -55 15 -41 19 23 7 95 -17
64 -2 -64 32 -68 17 -130 38 -136 46 -6 8 -20 14 -30 14 -16 0 -19 -8 -19 -50
0 -53 14 -67 24 -25 7 29 18 32 36 10 8 -9 32 -15 64 -16 47 -2 48 -2 16 -8
l-35 -7 50 -8 c28 -5 57 -12 65 -17 21 -12 -77 -12 -99 1 -28 14 -459 21 -468
7 -4 -7 -8 -24 -9 -40 -1 -24 0 -26 14 -15 13 12 14 10 3 -10 -15 -29 -8 -54
14 -46 8 3 15 1 15 -5 0 -14 -33 -14 -47 0 -8 8 -17 8 -32 0 -16 -9 -21 -21
-21 -55 0 -37 5 -48 31 -70 48 -41 95 -31 124 24 27 52 13 98 -40 127 -9 6
-12 16 -8 32 6 23 8 23 87 17 102 -8 399 -45 448 -56 40 -8 75 7 112 49 11 11
25 21 33 21 7 0 13 6 13 13 0 8 3 9 8 1 4 -6 13 -13 21 -15 8 -3 -11 -23 -50
-52 -35 -26 -114 -98 -176 -158 -62 -61 -113 -105 -113 -98 1 21 28 51 98 108
34 29 62 56 62 62 0 12 -77 -50 -130 -105 -19 -20 -41 -36 -47 -36 -9 0 -13
-18 -13 -59 0 -57 -1 -59 -30 -64 -62 -13 -44 -114 25 -143 42 -17 63 -9 95
35 21 30 29 88 16 109 -9 15 -56 16 -56 2 0 -5 3 -9 8 -9 19 3 33 -2 27 -11
-7 -12 -52 -13 -59 -2 -3 5 8 31 25 60 42 74 266 263 327 277 21 4 57 -7 143
-46 218 -98 329 -159 329 -179 0 -5 -16 -12 -35 -16 -66 -12 -85 -78 -39 -133
29 -35 75 -41 112 -15 19 13 22 24 22 82 0 41 -4 62 -9 53 -12 -18 -24 3 -17
29 3 11 8 28 11 38 4 14 -9 29 -52 59 -69 48 -213 122 -234 120 -8 -1 -56 21
-107 48 l-92 50 0 56 c0 31 -2 105 -4 165 -4 85 -3 96 4 49 4 -33 8 -99 9
-147 1 -98 5 -104 85 -148 41 -22 46 -23 63 -8 10 9 45 21 78 28 33 6 94 20
135 30 41 10 87 21 103 24 20 5 27 12 27 31 0 21 -4 25 -22 21 -13 -3 -50 -8
-83 -12 -34 -4 -53 -9 -43 -13 10 -3 -13 -6 -50 -6 -37 0 -111 -11 -165 -24
-53 -13 -100 -21 -104 -18 -3 4 -7 97 -7 207 -1 110 -3 200 -6 200 -3 0 -5
-17 -5 -37 0 -34 -3 -38 -27 -41 -33 -4 -36 10 -9 45 17 20 20 39 18 119 -1
52 -4 94 -7 93 -3 -1 -24 -5 -47 -11z m-6 -490 c-2 -35 -3 -9 -3 57 0 66 1 94
3 63 2 -32 2 -86 0 -120z m490 -34 c-3 -3 -12 -4 -19 -1 -8 3 -5 6 6 6 11 1
17 -2 13 -5z m-189 -202 c15 -10 57 -33 94 -52 37 -18 82 -49 100 -68 26 -28
28 -32 8 -19 -53 36 -67 45 -136 85 -79 47 -113 71 -101 72 5 0 21 -8 35 -18z
m216 -247 c-10 -8 -28 -14 -39 -14 -17 0 -16 3 10 24 19 16 33 21 39 15 6 -6
3 -15 -10 -25z"/>
<path d="M7310 1851 c0 -6 4 -13 10 -16 6 -3 7 1 4 9 -7 18 -14 21 -14 7z"/>
<path d="M10050 1836 c-24 -14 -24 -14 10 -11 50 4 50 4 50 15 0 14 -30 12
-60 -4z"/>
<path d="M2173 1603 c-204 -104 -553 -280 -775 -392 l-403 -203 -130 65 c-128
63 -237 119 -646 330 -113 59 -209 107 -213 107 -3 0 -6 -8 -6 -18 0 -13 39
-38 147 -92 82 -41 193 -99 248 -130 55 -32 177 -96 270 -145 94 -48 205 -106
247 -128 l77 -41 283 144 c156 79 344 176 418 215 74 39 302 154 505 255 204
101 373 188 377 194 36 53 -17 31 -399 -161z"/>
<path d="M3841 1744 c0 -11 3 -14 6 -6 3 7 2 16 -1 19 -3 4 -6 -2 -5 -13z"/>
<path d="M2822 1695 c-7 -15 -11 -30 -8 -32 7 -7 28 36 24 49 -2 6 -9 -2 -16
-17z"/>
<path d="M1664 1667 c-34 -18 -127 -63 -207 -102 -80 -38 -146 -72 -147 -75 0
-3 19 -11 43 -18 23 -8 82 -31 130 -53 61 -27 93 -37 104 -31 11 6 12 11 4 16
-6 4 -11 4 -11 0 0 -3 -8 0 -17 7 -11 10 -14 10 -9 2 4 -7 5 -13 3 -13 -7 0
-138 58 -159 70 -10 5 -25 10 -34 10 -36 0 -1 23 143 94 92 46 160 73 170 70
15 -5 16 -4 3 5 -13 9 -13 11 0 12 8 1 32 3 53 4 49 5 131 -29 123 -50 -3 -8
0 -14 6 -12 6 1 12 -2 14 -8 4 -11 -77 -75 -94 -75 -7 0 -12 -4 -12 -10 0 -5
-17 -19 -37 -29 -21 -11 -49 -29 -63 -41 -14 -11 18 2 70 28 52 27 130 64 173
82 42 19 77 37 77 40 0 8 -235 110 -252 110 -7 -1 -40 -15 -74 -33z m240 -56
c15 -6 16 -9 5 -13 -8 -3 -20 1 -27 8 -14 15 -7 17 22 5z m-4 -45 c0 -2 -7 -7
-16 -10 -8 -3 -12 -2 -9 4 6 10 25 14 25 6z"/>
<path d="M8240 1632 c19 -9 45 -27 58 -40 24 -25 39 -24 29 3 -9 22 -68 55
-97 54 -23 0 -22 -2 10 -17z"/>
<path d="M8044 1621 c-18 -11 -34 -23 -37 -28 -7 -11 22 -73 34 -73 4 0 36
-16 69 -36 43 -25 65 -33 72 -26 8 8 3 13 -15 17 -14 4 -42 24 -62 46 -20 21
-40 39 -45 39 -20 0 -9 29 21 54 24 21 27 26 12 26 -10 0 -32 -9 -49 -19z"/>
<path d="M4765 1610 c-3 -5 -1 -10 4 -10 6 0 11 5 11 10 0 6 -2 10 -4 10 -3 0
-8 -4 -11 -10z"/>
<path d="M6321 1574 c0 -11 3 -14 6 -6 3 7 2 16 -1 19 -3 4 -6 -2 -5 -13z"/>
<path d="M8780 1554 c0 -13 7 -15 32 -10 52 10 58 26 10 26 -32 0 -42 -4 -42
-16z"/>
<path d="M8270 1517 l-25 -31 33 19 c17 11 32 25 32 32 0 21 -13 14 -40 -20z"/>
<path d="M7903 1528 c-29 -10 -32 -14 -30 -50 1 -32 8 -44 37 -66 19 -15 42
-27 50 -27 8 -1 14 -7 12 -14 -1 -7 2 -10 8 -6 6 4 16 2 23 -4 7 -5 18 -6 25
-2 9 5 -1 14 -28 26 -41 18 -100 78 -100 101 0 15 39 41 71 47 20 4 19 4 -6 5
-16 0 -44 -5 -62 -10z m42 -118 c10 -11 16 -20 13 -20 -3 0 -13 9 -23 20 -10
11 -16 20 -13 20 3 0 13 -9 23 -20z"/>
<path d="M8322 1478 c-29 -12 -51 -23 -49 -25 5 -4 117 36 117 43 0 6 -11 3
-68 -18z"/>
<path d="M8230 1441 c0 -5 11 -16 25 -25 25 -16 25 -16 13 9 -11 24 -38 35
-38 16z"/>
<path d="M1620 1410 c-9 -6 -10 -10 -3 -10 6 0 15 5 18 10 8 12 4 12 -15 0z"/>
<path d="M8291 1321 c-8 -5 -9 -11 -3 -15 5 -3 12 1 16 9 6 17 6 18 -13 6z"/>
<path d="M8559 1259 c12 -12 24 -19 27 -16 7 6 -25 37 -39 37 -6 0 -1 -9 12
-21z"/>
<path d="M8611 1236 c-10 -12 -8 -13 8 -9 12 3 18 9 15 14 -7 12 -10 11 -23
-5z"/>
<path d="M8540 1223 c-9 -2 -21 -12 -28 -23 -12 -20 -11 -20 30 -3 24 9 44 17
46 18 6 5 -34 11 -48 8z"/>
</g>
</svg>
